<svg width="1019" height="459" viewBox="0 0 1019 459" fill="none" xmlns="http://www.w3.org/2000/svg">
<g opacity="0.3" filter="url(#filter0_d)">
<rect x="586.417" y="113.963" width="128.575" height="25.3253" fill="#00C994" fill-opacity="0.5"/>
<rect x="273.747" y="335.073" width="175.329" height="21.4291" fill="#00C994" fill-opacity="0.5"/>
<rect x="888.373" y="176.303" width="109.094" height="20.4551" fill="#00C994" fill-opacity="0.5"/>
<rect x="619.535" y="-0.000762939" width="73.0539" height="20.4551" fill="#00C994" fill-opacity="0.5"/>
<rect x="105.236" y="381.828" width="49.6766" height="20.4551" fill="#00C994" fill-opacity="0.5"/>
<rect x="354.593" y="430.53" width="12.6627" height="12.6627" fill="#00C994" fill-opacity="0.5"/>
<rect x="761.747" y="381.828" width="12.6627" height="12.6627" fill="#00C994" fill-opacity="0.5"/>
<rect x="39" y="20.4543" width="154.874" height="154.874" fill="#00C994" fill-opacity="0.7"/>
<rect x="105.236" y="105.197" width="21.4291" height="21.4291" fill="white"/>
<rect x="77.962" y="430.53" width="12.6627" height="12.6627" fill="#00C994" fill-opacity="0.5"/>
<rect x="72.1178" y="424.686" width="12.6627" height="12.6627" fill="white"/>
<rect x="832.852" y="26.2986" width="12.6627" height="12.6627" fill="white"/>
<path d="M243.61 294.504V192.715C243.61 186.465 243.788 179.769 244.146 172.626C244.681 165.304 245.396 157.714 246.288 149.857L143.161 294.504H243.61ZM356.113 294.504V341.112C356.113 345.219 354.684 348.791 351.827 351.827C349.148 354.863 345.22 356.38 340.041 356.38H315.933V446.115H243.61V356.38H86.6414C81.4627 356.38 76.7304 354.773 72.4446 351.559C68.3373 348.345 65.748 344.327 64.6765 339.505L56.1049 298.522L236.645 55.8367H315.933V294.504H356.113Z" fill="#00C994" fill-opacity="0.5"/>
<path d="M668.217 250.842C668.217 284.95 664.556 314.504 657.234 339.505C649.913 364.506 639.734 385.221 626.698 401.65C613.84 418.079 598.483 430.311 580.625 438.347C562.946 446.383 543.749 450.401 523.034 450.401C502.319 450.401 483.122 446.383 465.443 438.347C447.943 430.311 432.764 418.079 419.906 401.65C407.049 385.221 396.959 364.506 389.638 339.505C382.495 314.504 378.923 284.95 378.923 250.842C378.923 216.734 382.495 187.18 389.638 162.179C396.959 137.178 407.049 116.463 419.906 100.034C432.764 83.6053 447.943 71.4621 465.443 63.6048C483.122 55.5689 502.319 51.5509 523.034 51.5509C543.749 51.5509 562.946 55.5689 580.625 63.6048C598.483 71.4621 613.84 83.6053 626.698 100.034C639.734 116.463 649.913 137.178 657.234 162.179C664.556 187.18 668.217 216.734 668.217 250.842ZM582.5 250.842C582.5 223.877 580.804 201.823 577.411 184.679C574.018 167.358 569.464 153.786 563.75 143.964C558.214 134.142 551.874 127.446 544.731 123.874C537.588 120.124 530.356 118.249 523.034 118.249C515.713 118.249 508.48 120.124 501.337 123.874C494.373 127.446 488.122 134.142 482.587 143.964C477.229 153.786 472.854 167.358 469.461 184.679C466.247 201.823 464.64 223.877 464.64 250.842C464.64 277.986 466.247 300.129 469.461 317.272C472.854 334.416 477.229 347.987 482.587 357.988C488.122 367.809 494.373 374.595 501.337 378.345C508.48 381.917 515.713 383.703 523.034 383.703C530.356 383.703 537.588 381.917 544.731 378.345C551.874 374.595 558.214 367.809 563.75 357.988C569.464 347.987 574.018 334.416 577.411 317.272C580.804 300.129 582.5 277.986 582.5 250.842Z" fill="#00C994" fill-opacity="0.5"/>
<path d="M865.139 294.504V192.715C865.139 186.465 865.317 179.769 865.674 172.626C866.21 165.304 866.924 157.714 867.817 149.857L764.69 294.504H865.139ZM977.642 294.504V341.112C977.642 345.219 976.213 348.791 973.356 351.827C970.677 354.863 966.749 356.38 961.57 356.38H937.462V446.115H865.139V356.38H708.17C702.991 356.38 698.259 354.773 693.973 351.559C689.866 348.345 687.277 344.327 686.205 339.505L677.634 298.522L858.174 55.8367H937.462V294.504H977.642Z" fill="#00C994" fill-opacity="0.5"/>
<path d="M228.999 285.737V183.949C228.999 177.699 229.178 171.002 229.535 163.859C230.071 156.537 230.785 148.948 231.678 141.091L128.55 285.737H228.999ZM341.502 285.737V332.346C341.502 336.453 340.074 340.024 337.216 343.06C334.538 346.096 330.609 347.614 325.43 347.614H301.322V437.349H228.999V347.614H72.0307C66.852 347.614 62.1197 346.007 57.8339 342.792C53.7266 339.578 51.1373 335.56 50.0658 330.739L41.4941 289.755L222.035 47.0703H301.322V285.737H341.502Z" fill="white"/>
<path d="M653.606 242.075C653.606 276.183 649.945 305.738 642.623 330.739C635.302 355.739 625.123 376.454 612.087 392.883C599.229 409.312 583.872 421.545 566.014 429.58C548.335 437.616 529.138 441.634 508.423 441.634C487.709 441.634 468.512 437.616 450.833 429.58C433.332 421.545 418.153 409.312 405.296 392.883C392.438 376.454 382.349 355.739 375.027 330.739C367.884 305.738 364.312 276.183 364.312 242.075C364.312 207.967 367.884 178.413 375.027 153.412C382.349 128.412 392.438 107.697 405.296 91.2678C418.153 74.8388 433.332 62.6957 450.833 54.8383C468.512 46.8024 487.709 42.7844 508.423 42.7844C529.138 42.7844 548.335 46.8024 566.014 54.8383C583.872 62.6957 599.229 74.8388 612.087 91.2678C625.123 107.697 635.302 128.412 642.623 153.412C649.945 178.413 653.606 207.967 653.606 242.075ZM567.889 242.075C567.889 215.11 566.193 193.056 562.8 175.913C559.407 158.591 554.853 145.019 549.139 135.198C543.603 125.376 537.264 118.679 530.12 115.108C522.977 111.358 515.745 109.483 508.423 109.483C501.102 109.483 493.869 111.358 486.726 115.108C479.762 118.679 473.512 125.376 467.976 135.198C462.619 145.019 458.244 158.591 454.851 175.913C451.636 193.056 450.029 215.11 450.029 242.075C450.029 269.219 451.636 291.362 454.851 308.506C458.244 325.649 462.619 339.221 467.976 349.221C473.512 359.043 479.762 365.829 486.726 369.579C493.869 373.15 501.102 374.936 508.423 374.936C515.745 374.936 522.977 373.15 530.12 369.579C537.264 365.829 543.603 359.043 549.139 349.221C554.853 339.221 559.407 325.649 562.8 308.506C566.193 291.362 567.889 269.219 567.889 242.075Z" fill="white"/>
<path d="M850.528 285.737V183.949C850.528 177.699 850.707 171.002 851.064 163.859C851.599 156.537 852.314 148.948 853.207 141.091L750.079 285.737H850.528ZM963.031 285.737V332.346C963.031 336.453 961.602 340.024 958.745 343.06C956.066 346.096 952.138 347.614 946.959 347.614H922.851V437.349H850.528V347.614H693.559C688.381 347.614 683.648 346.007 679.363 342.792C675.255 339.578 672.666 335.56 671.595 330.739L663.023 289.755L843.564 47.0703H922.851V285.737H963.031Z" fill="white"/>
<rect x="949.739" y="26.2986" width="21.4291" height="21.4291" fill="#00C994" fill-opacity="0.5"/>
<rect x="896.166" y="186.043" width="109.094" height="20.4551" fill="white"/>
<rect x="732.525" y="134.418" width="282.475" height="9.74052" fill="white"/>
<rect x="4" y="206" width="101" height="20" fill="white"/>
<rect x="774.409" y="84.7417" width="54.5469" height="29.2216" fill="white"/>
<rect x="134.457" y="374.035" width="126.627" height="14.6108" fill="white"/>
<rect x="253.291" y="412.997" width="126.627" height="7.79242" fill="white"/>
<rect x="667.263" y="10.7138" width="149.03" height="20.4551" fill="white"/>
<rect x="376.022" y="68.1829" width="275.657" height="16.5589" fill="white"/>
<rect x="782.202" y="399.36" width="113.964" height="25.3253" fill="#00C994" fill-opacity="0.5"/>
<rect x="265.954" y="91.5601" width="21.4291" height="21.4291" fill="#00C994" fill-opacity="0.5"/>
</g>
<defs>
<filter id="filter0_d" x="0" y="-0.000762939" width="1019" height="458.402" filterUnits="userSpaceOnUse" color-interpolation-filters="sRGB">
<feFlood flood-opacity="0" result="BackgroundImageFix"/>
<feColorMatrix in="SourceAlpha" type="matrix" values="0 0 0 0 0 0 0 0 0 0 0 0 0 0 0 0 0 0 127 0"/>
<feOffset dy="4"/>
<feGaussianBlur stdDeviation="2"/>
<feColorMatrix type="matrix" values="0 0 0 0 0 0 0 0 0 0 0 0 0 0 0 0 0 0 0.25 0"/>
<feBlend mode="normal" in2="BackgroundImageFix" result="effect1_dropShadow"/>
<feBlend mode="normal" in="SourceGraphic" in2="effect1_dropShadow" result="shape"/>
</filter>
</defs>
</svg>
