<svg width="0" height="0" class="hidden">
  <symbol viewBox="0 0 80 80" fill="none" xmlns="http://www.w3.org/2000/svg" id="design">
    <path d="M75.4 78H4.6a.6.6 0 01-.6-.5V23a.6.6 0 01.6-.6h70.8a.6.6 0 01.6.6v54.5a.6.6 0 01-.6.6zM5.2 77h69.6V23.6H5.2v53.3z" fill="#fff"/>
    <path d="M33 35.6H4.7a.6.6 0 110-1.2h29v.6a.6.6 0 01-.5.6zm42.4 0H47a.6.6 0 01-.6-.6v-.6h29.1a.6.6 0 110 1.2zm-63.7-4.1a2.6 2.6 0 112.6-2.6 2.6 2.6 0 01-2.6 2.6zm0-4a1.4 1.4 0 101.5 1.4 1.4 1.4 0 00-1.5-1.5zm8.8 4a2.6 2.6 0 112.6-2.6 2.6 2.6 0 01-2.6 2.6zm0-4a1.4 1.4 0 00-1.4 1.4 1.4 1.4 0 101.4-1.5zm55 2H54.2a.6.6 0 01-.5-1 .6.6 0 01.5-.2h21.1a.6.6 0 01.6.6.6.6 0 01-.6.5zm-32.1-6.1h-6.7a.6.6 0 01-.6-.6V5a4 4 0 018 0v17.8a.6.6 0 01-.7.6zm-6.2-1.2h5.6V5a2.8 2.8 0 10-5.6 0v17.2z" fill="#fff"/>
    <path d="M39.9 62.8a.6.6 0 01-.5-.3l-10-15.2a.6.6 0 010-.5L36 27H44l6.7 19.8a.6.6 0 010 .5L40.3 62.5a.6.6 0 01-.5.3zm-9.3-15.9l9.3 14.2L49.4 47 43 27.8H37l-6.5 19.1z" fill="#fff"/>
    <path d="M46 28H34a.6.6 0 01-.5-.6V23a.6.6 0 01.5-.6h12a.6.6 0 01.6.6v4.4a.6.6 0 01-.6.6zm-11.4-1.2h10.8v-3.2H34.6v3.2zM40 46.2a3.8 3.8 0 11.1-7.6 3.8 3.8 0 01-.1 7.6zm0-6.4a2.6 2.6 0 100 5.2 2.6 2.6 0 000-5.2z" fill="#fff"/>
    <path d="M39.9 62.8a.6.6 0 01-.6-.6l.1-16.6a.6.6 0 01.6-.6.6.6 0 01.6.6l-.1 16.6a.6.6 0 01-.6.6z" fill="#fff"/>
    <path d="M45.3 69.4H34.8a.6.6 0 01-.6-.6V63a.6.6 0 01.6-.6h10.5a.6.6 0 01.5.6v6a.6.6 0 01-.5.5zm-10-1.2h9.4v-4.7h-9.3v4.7zm31.8-.3h-5.3a.6.6 0 01-.6-.5v-3a.6.6 0 01.6-.6H67a.6.6 0 01.6.6v3a.6.6 0 01-.6.5zm-4.7-1.1h4v-1.9h-4v1.9z" fill="#fff"/>
    <path d="M61.8 66.4H45.3a.6.6 0 01-.5-1 .6.6 0 01.5-.1h16.5a.6.6 0 01.6.6.6.6 0 01-.6.5zM18.2 68H13a.6.6 0 01-.6-.5v-3a.6.6 0 01.6-.6h5.3a.6.6 0 01.6.6v3a.6.6 0 01-.6.5zm-4.7-1.1h4.1v-1.9h-4v1.9z" fill="#fff"/>
    <path d="M34.7 66.4H18.2a.6.6 0 01-.4-1 .6.6 0 01.4-.1h16.5a.6.6 0 01.6.6.6.6 0 01-.6.5z" fill="#fff"/>
  </symbol>
  <symbol viewBox="0 0 80 80" fill="none" xmlns="http://www.w3.org/2000/svg" id="games">
    <path d="M77.4 71.6H2.6a.6.6 0 01-.6-.7V8.6a.6.6 0 01.6-.6h74.8a.6.6 0 01.6.6V71a.6.6 0 01-.6.7zM3.3 70.3h73.4v-61H3.3v61z" fill="#fff"/>
    <path d="M77.4 21.9H2.6a.6.6 0 010-1.3h74.8a.6.6 0 010 1.3zm-67.2-4.4a2.8 2.8 0 112.7-2.7 2.7 2.7 0 01-2.7 2.7zm0-4.2a1.5 1.5 0 100 3 1.5 1.5 0 000-3zm9.2 4.2a2.8 2.8 0 112.8-2.7 2.7 2.7 0 01-2.8 2.7zm0-4.2a1.5 1.5 0 00-1.5 1.5 1.5 1.5 0 101.5-1.5zm58 2.1H35.8a.6.6 0 010-1.2h41.6a.6.6 0 010 1.2zm-25 41L41.7 45.7 52.4 35a.7.7 0 000-1 16.5 16.5 0 100 23.4.7.7 0 000-1zm-11.7 4.4a15.2 15.2 0 010-30.3 15 15 0 0110.2 4L40.2 45.2a.7.7 0 000 1l10.7 10.7a15.2 15.2 0 01-10.2 4z" fill="#fff"/>
    <path d="M39.3 34a2.8 2.8 0 100 5.5 2.8 2.8 0 000-5.5zm0 4.1a1.4 1.4 0 111.4-1.4 1.4 1.4 0 01-1.4 1.4zm14.5 5.5a2 2 0 100 4.2 2 2 0 000-4.2zm0 2.8a.7.7 0 110-1.4.7.7 0 010 1.4zm-5.5-2.8a2 2 0 100 4.2 2 2 0 000-4.2zm0 2.8a.7.7 0 110-1.4.7.7 0 010 1.4z" fill="#fff"/>
  </symbol>
  <symbol viewBox="0 0 80 80" fill="none" xmlns="http://www.w3.org/2000/svg" id="mobile-apps">
    <path d="M57.8 27.2h0v0a2.2 2.2 0 012.2 2.2 2.2 2.2 0 11-2.2-2.2zm-2 5.1a3.6 3.6 0 104-6 3.6 3.6 0 00-4 6zm8.5 9.3a.7.7 0 00.7-.6.2.2 0 000-.1 6.5 6.5 0 00-2.3-5h0a8 8 0 00-9.8 0h0a6.5 6.5 0 00-2.3 5 .7.7 0 00.7.7h13zm-.7-1.3H52c.3-3.3 3.2-4.8 5.8-4.8 2.7 0 5.5 1.5 5.8 4.8zM48 55.2a.7.7 0 01-.7-.7m.7.7l19.8-1.3m-19.8 1.3h19.8a.7.7 0 00.7-.7m-20.5.7l19.8-1.3m-20.5.6a.7.7 0 01.7-.6m-.7.6v0h.1v0zm.7-.6h0v0zm0 0h19.8m0 0v0m0 0v0m0 0a.7.7 0 01.7.6m0 0v0h-.1 0zm-20.5-6.8h19.8a.7.7 0 000-1.3H47.9a.7.7 0 100 1.3zm-6.6 27.4h33a3.7 3.7 0 003.8-3.8v-6.8a.7.7 0 00-.7-.7H38.2a.7.7 0 00-.7.7v6.8a3.7 3.7 0 003.8 3.8zm-1.7-2a2.4 2.4 0 01-.7-1.8v-6.1h37.8v6.1a2.4 2.4 0 01-2.4 2.4h-33a2.4 2.4 0 01-1.7-.7zm-2-63.4v6.8a.7.7 0 00.6.6h39.2a.7.7 0 00.7-.6V9.7a3.7 3.7 0 00-3.8-3.8h-33a3.7 3.7 0 00-3.8 3.8zm1.3 0a2.4 2.4 0 012.4-2.5h33c.7 0 1.3.3 1.8.7h0a2.4 2.4 0 01.7 1.7v6.2h-38V9.7z" fill="#fff" stroke="#fff" stroke-width=".1"/>
    <path d="M60.7 69.5a3 3 0 10-2.9 3 3 3 0 003-3zm0 0h0zM57 68.2a1.6 1.6 0 111.8 2.6 1.6 1.6 0 01-1.8-2.6zm4.8-55.9H54a.7.7 0 01-.7-.7l8.5.7zm0 0a.7.7 0 00.7-.7l-.7.7zM54 11a.7.7 0 00-.7.6l9-.2a.6.6 0 00-.5-.3V11H54zm0 0v0z" fill="#fff" stroke="#fff" stroke-width=".1"/>
    <path d="M41.3 75h33a3.7 3.7 0 003.8-3.7V9.7a3.7 3.7 0 00-3.8-3.8h-33a3.7 3.7 0 00-3.8 3.8v61.6a3.7 3.7 0 003.8 3.8zM38.9 9.8a2.4 2.4 0 012.4-2.5h33a2.4 2.4 0 012.4 2.5v61.6a2.4 2.4 0 01-2.4 2.4h-33a2.4 2.4 0 01-2.4-2.4V9.7zM9.3 50.9v7.8a.7.7 0 01-1.1.5.7.7 0 01-.2-.5M9.3 51H8v7.8M9.3 51a.7.7 0 00-.7-.7l.7.7zM8 58.7h0z" fill="#fff" stroke="#fff" stroke-width=".1"/>
    <path d="M38 34H7.5a4 4 0 00-4 4v32a4 4 0 004 4H40M13 34v39.5" stroke="#fff" stroke-width="1.3"/>
  </symbol>
  <symbol viewBox="0 0 80 80" fill="none" xmlns="http://www.w3.org/2000/svg" id="web-apps">
    <path d="M74.6 61.7H5.3A3.3 3.3 0 012 58.3v-51A3.3 3.3 0 015.3 4h69.4A3.4 3.4 0 0178 7.3v51a3.4 3.4 0 01-3.4 3.4zM5.3 5.2a2.1 2.1 0 00-2 2.1v51a2.1 2.1 0 002 2.1h69.4a2.1 2.1 0 002-2v-51a2.1 2.1 0 00-2-2.2H5.3z" fill="#fff"/>
    <path d="M49 71H31a.6.6 0 01-.5-.3.6.6 0 01-.2-.5l1.5-9.2a.6.6 0 01.6-.6h15.2a.6.6 0 01.6.6l1.5 9a.5.5 0 010 .3.6.6 0 01-.7.6zm-17.4-1.3h16.7l-1.2-8H33l-1.3 8z" fill="#fff"/>
    <path d="M55 75.7H25a.6.6 0 01-.6-.7v-4.7a.6.6 0 01.6-.7h30a.6.6 0 01.6.7V75a.6.6 0 01-.7.6zm-29.3-1.3h28.6v-3.5H25.7v3.5zm51.7-24.3H2.6a.6.6 0 010-1.3h74.8a.6.6 0 010 1.3zM40 58.6a3.3 3.3 0 11-.1-6.7 3.3 3.3 0 01.1 6.7zm0-5.4a2 2 0 100 4.1 2 2 0 000-4.1z" fill="#fff"/>
    <path d="M65.3 50H14.7a.6.6 0 01-.6-.5V13a.6.6 0 01.6-.6h50.6a.6.6 0 01.6.6v36.4a.6.6 0 01-.6.6zm-50-1.2h49.4v-35H15.3v35z" fill="#fff"/>
    <path d="M65.3 22.2H14.7a.6.6 0 010-1.2h50.6a.6.6 0 110 1.2zM54.7 28H25.3a.6.6 0 010-1.2h29.4a.6.6 0 010 1.2zM49 39H25.3a.6.6 0 010-1.3H49a.6.6 0 01.3 1.2.6.6 0 01-.3 0zm-14.8-5.5H25a.6.6 0 010-1.2h9.2a.6.6 0 010 1.2zm20.8 0H41.8a.6.6 0 010-1.2H55a.6.6 0 010 1.2zm0 11h-9.2a.6.6 0 010-1.3H55a.6.6 0 010 1.2zm-16.8 0H25a.6.6 0 010-1.3h13.2a.6.6 0 010 1.2zm-16.6-25a2.1 2.1 0 01-2.2-2 2.1 2.1 0 012.2-2 2.1 2.1 0 012.2 2 2.1 2.1 0 01-2.2 2zm0-2.8c-.5 0-1 .4-1 .8a.9.9 0 001 .7.9.9 0 001-.7.9.9 0 00-1-.8zm10.8 2.8a2.1 2.1 0 01-2.2-2 2.2 2.2 0 014.4 0 2.1 2.1 0 01-2.2 2zm0-2.8c-.5 0-1 .4-1 .8a.9.9 0 001 .7.9.9 0 001-.7.9.9 0 00-1-.8zm10.8 2.8a2.1 2.1 0 01-2.3-2 2.2 2.2 0 014.5 0 2.1 2.1 0 01-2.2 2zm0-2.8c-.6 0-1 .4-1 .8a1 1 0 102 0c0-.5-.5-.8-1-.8z" fill="#fff"/>
  </symbol>
  <symbol viewBox="0 0 80 80" fill="none" xmlns="http://www.w3.org/2000/svg" id="webshops">
    <path d="M77.4 68.5H2.6a.6.6 0 01-.6-.6V11.6a.6.6 0 01.6-.6h74.8a.6.6 0 01.6.6V68a.6.6 0 01-.6.6zM3.2 67.2h73.5v-55H3.3v55z" fill="#fff"/>
    <path d="M77.4 24.9H2.6a.6.6 0 010-1.3h74.8a.6.6 0 110 1.3zm-60.1-6.7H9a.6.6 0 01-.6-.8.6.6 0 01.6-.4h8.3a.6.6 0 010 1.2z" fill="#fff"/>
    <path d="M65 42.3H54a.5.5 0 01-.4-.3l-3.3-9.6-.9-2.9h-5a.5.5 0 110-1h5.3a.5.5 0 01.5.4l.9 2.9h17.2a.5.5 0 01.4.2.5.5 0 010 .4L65.5 42a.5.5 0 01-.5.3zm-10.7-1h10.4l3-8.6H51.3l3 8.6zm1.1 5.8a2 2 0 110-3.9 2 2 0 010 3.9zm0-3a1 1 0 101 1 1 1 0 00-1-.9v0zm8.2 3a2 2 0 110-3.9 2 2 0 010 3.9zm0-3a1 1 0 101 1 1 1 0 00-1-.9v0z" fill="#fff" stroke="#fff" stroke-width=".3" stroke-miterlimit="10"/>
    <path d="M27 63.5H10.3a.6.6 0 01-.6-.6V52.1a.5.5 0 01.5-.6H27a.5.5 0 01.5.6v10.8a.6.6 0 01-.5.6zm-16.2-1.1h15.6v-9.8H10.8v9.8zm59.4 1H53.5a.6.6 0 01-.6-.5V52.1a.5.5 0 01.6-.6h16.7a.5.5 0 01.6.6v10.8a.6.6 0 01-.6.6zm-16.2-1h15.7v-9.8H54v9.8z" fill="#fff" stroke="#fff" stroke-width=".1" stroke-miterlimit="10"/>
    <path d="M35.3 44.4H10.9a.7.7 0 010-1.4h24.4a.7.7 0 010 1.4zm0-6.2H10.9a.7.7 0 010-1.5h24.4a.7.7 0 010 1.5zm0-6.2H10.9a.7.7 0 110-1.5h24.4a.7.7 0 010 1.5z" fill="#fff"/>
    <path d="M48.6 63.5H31.9a.6.6 0 01-.6-.6V52.1a.5.5 0 01.6-.6h16.7a.5.5 0 01.5.6v10.8a.6.6 0 01-.5.6zm-16.2-1.1H48v-9.8H32.4v9.8z" fill="#fff" stroke="#fff" stroke-width=".1" stroke-miterlimit="10"/>
  </symbol>
  <symbol viewBox="0 0 80 80" fill="none" xmlns="http://www.w3.org/2000/svg" id="websites">
    <path d="M77.4 71.8H2.6a.6.6 0 01-.6-.6V8.6a.6.6 0 01.6-.6h74.8a.6.6 0 01.6.6v62.6a.6.6 0 01-.6.6zM3.2 70.6h73.6V9.2H3.2v61.4z" fill="#fff"/>
    <path d="M77.4 23.9H2.6a.6.6 0 010-1.3h74.8a.6.6 0 010 1.3zm-34.5 9.8H11.2a.6.6 0 010-1.2H43a.6.6 0 010 1.2zm-6 18.8H11.2a.6.6 0 010-1.2H37a.6.6 0 010 1.2zm-16.1-9.4h-9.9a.6.6 0 110-1.2h9.9a.6.6 0 110 1.2zm22.5 0H29a.6.6 0 110-1.2h14.2a.6.6 0 110 1.2zm0 18.9h-10a.6.6 0 110-1.3h10a.6.6 0 110 1.3zM25 62H10.9a.6.6 0 110-1.3h14.2a.6.6 0 110 1.3zM12.9 19a3 3 0 110-6 3 3 0 010 6zm0-4.8a1.7 1.7 0 101.7 1.7 1.7 1.7 0 00-1.7-1.7zm15.9 4.7a3 3 0 113-3 3 3 0 01-3 3zm0-4.7a1.7 1.7 0 101.7 1.7 1.7 1.7 0 00-1.7-1.7zm15.9 4.7a3 3 0 110-6 3 3 0 010 6zm0-4.7a1.7 1.7 0 101.7 1.7 1.7 1.7 0 00-1.7-1.7zm16.1 45.2a.6.6 0 01-.5-.2L48.1 43a.6.6 0 010-.7l4.7-7.1a.6.6 0 01.5-.3h15a.6.6 0 01.6.3l4.6 7a.6.6 0 010 .8L61.3 59a.6.6 0 01-.5.3zM49.4 42.7l11.4 15 11.4-15-4.2-6.5H53.6l-4.2 6.5z" fill="#fff"/>
    <path d="M73 43.3H48.7a.6.6 0 110-1.2h24.5a.6.6 0 110 1.2z" fill="#fff"/>
    <path d="M60.8 59.4a.6.6 0 01-.6-.4l-6.4-16a.6.6 0 010-.5l2.7-7.1a.6.6 0 011.2.4l-2.7 7 6.4 15.8a.6.6 0 01-.6.8z" fill="#fff"/>
    <path d="M60.8 59.4a.7.7 0 01-.2 0 .6.6 0 01-.4-.8l6.5-15.8-2.7-7a.6.6 0 011.2-.4l2.7 7a.6.6 0 010 .5L61.4 59a.6.6 0 01-.6.4z" fill="#fff"/>
    <path d="M60.8 59.4a.6.6 0 01-.6-.6V35.6a.6.6 0 011.3 0v23.2a.6.6 0 01-.7.6z" fill="#fff"/>
  </symbol>
</svg>
