<?xml version="1.0" encoding="utf-8"?>
<!-- Generator: Adobe Illustrator 22.0.1, SVG Export Plug-In . SVG Version: 6.00 Build 0)  -->
<svg version="1.1" id="Layer_1" xmlns="http://www.w3.org/2000/svg" xmlns:xlink="http://www.w3.org/1999/xlink" x="0px" y="0px"
	 viewBox="0 0 452 190" style="enable-background:new 0 0 452 190;" xml:space="preserve">
<style type="text/css">
	.st0{fill:#002163;}
	.st1{fill:#00C994;}
</style>
<g>
	<path class="st0" d="M278.5,101.6c-1.6-2.3-3.3-4.4-5.1-6.3c1.8-1.9,3.5-4,5.1-6.2c2.8-4.1,5-8.9,6.8-14.2
		c1.7-5.4,2.6-11.4,2.6-18.2c0-6.7-0.8-12.8-2.5-18.1c-1.7-5.3-3.9-10.1-6.8-14.2s-6.1-7.6-9.8-10.6c-3.7-2.9-7.6-5.2-11.6-7.3
		C248.7,2,240.8,1,234.8,1c-2.6,0-88.9,0-106.6,0v33.9v0.2h107.1c2.2,0.2,4.2,0.7,6.1,1.5c2.6,1.1,4.8,2.5,6.6,4.5s3.2,4.2,4.1,6.8
		c1,2.6,1.4,5.5,1.4,8.7c0,6.5-1.8,11.6-5.4,15.5c-3.6,3.8-8.7,5.8-15.3,5.8h-59.3c1.4,1,2.8,2,4.1,3c4.6,3.7,8.7,8.1,12.3,13.3
		c3.6,5.1,6.4,11.1,8.4,17.6c0.1,0.2,0.1,0.4,0.2,0.6H233c3.1,0,6,0.5,8.6,1.6c2.6,1.1,4.8,2.5,6.6,4.5c1.8,1.9,3.2,4.2,4.1,6.8
		c1,2.6,1.4,5.5,1.4,8.7c0,6.5-1.8,11.6-5.4,15.5c-3.6,3.8-8.7,5.8-15.3,5.8h-34.4c-0.1,0.2-0.1,0.3-0.1,0.5
		c-2.1,6.5-4.9,12.4-8.4,17.5c-3.5,5.2-7.8,9.7-12.6,13.4c-1.2,0.9-2.5,1.8-3.7,2.7H233c3.7,0,7.6-0.4,11.7-1.3
		c4.2-0.9,8.2-2.2,12.3-4.1c4-1.8,7.9-4.2,11.7-7.1c3.8-2.9,7-6.4,9.8-10.5c2.8-4.1,5-8.9,6.8-14.2c1.7-5.4,2.6-11.4,2.6-18.2
		c0-6.7-0.8-12.8-2.5-18.1C283.6,110.4,281.4,105.7,278.5,101.6z"/>
	<g>
		<path class="st1" d="M448.5,115.7c-1.7-5.3-3.9-10.1-6.8-14.2c-2.8-4.1-6.1-7.6-9.8-10.6s-7.5-5.4-11.6-7.3
			c-4.1-1.9-8.2-3.3-12.3-4.3c-4.1-0.9-8-1.4-11.7-1.5h-0.3h-63.9c-6.5,0-11.5-1.9-15.2-5.7s-5.4-9-5.4-15.5
			c0-6.5,1.8-11.7,5.4-15.6c3.6-3.9,8.7-5.9,15.2-5.9H417V1.1h-84.7c-5.5,0-11.5,1-17.8,3c-6.4,2-12.3,5.2-17.8,9.6
			c-2.2,1.8-4.3,3.8-6.2,6c2.8,4.5,5.1,9.6,6.8,15.1c2,6.5,3.1,13.9,3.1,21.9c0,8-1.1,15.4-3.2,22c-1.8,5.5-4.1,10.6-6.8,15.2
			c1.9,2.3,4,4.3,6.3,6.1c5.5,4.4,11.4,7.5,17.8,9.5c6.4,2,12.3,2.9,17.8,2.9h63.9c3.1,0,6,0.5,8.6,1.6c2.6,1.1,4.8,2.5,6.6,4.5
			c1.8,1.9,3.2,4.2,4.1,6.8c1,2.6,1.4,5.5,1.4,8.7c0,6.5-1.8,11.6-5.4,15.5c-3.6,3.8-8.7,5.8-15.3,5.8h-98.7
			c-0.1,0.2-0.1,0.5-0.2,0.7c-2.1,6.5-4.9,12.4-8.4,17.5c-3.5,5.2-7.8,9.7-12.6,13.4c-1.1,0.8-2.2,1.7-3.4,2.4h123.2
			c3.7,0,7.6-0.4,11.7-1.3c4.2-0.9,8.2-2.2,12.3-4.1s7.9-4.2,11.7-7.1c3.8-2.9,7-6.4,9.8-10.5c2.8-4.1,5-8.9,6.8-14.2
			c1.7-5.4,2.6-11.4,2.6-18.2C451,127.1,450.2,121,448.5,115.7z"/>
	</g>
	<g>
		<rect x="2.6" y="154.8" class="st1" width="34.6" height="34.1"/>
		<path class="st1" d="M186.5,115.5c-1.7-5.3-3.9-10.1-6.8-14.2c-2.8-4.1-6.1-7.6-9.8-10.6s-7.5-5.4-11.6-7.3
			c-4.1-1.9-8.2-3.3-12.3-4.3c-4.1-0.9-8-1.4-11.7-1.5h-0.3H55.7c-6.5,0-11.5-1.9-15.2-5.7c-3.6-3.8-5.4-9-5.4-15.5
			c0-6.5,1.8-11.7,5.4-15.6c3.6-3.9,8.7-5.9,15.2-5.9h60V0.8h-60c-5.5,0-11.5,1-17.8,3c-6.4,2-12.3,5.2-17.8,9.6
			c-5.5,4.4-10,10.1-13.6,17.2C2.8,37.6,1,46.2,1,56.5c0,10.2,1.8,18.9,5.4,26c3.6,7.1,8.2,12.8,13.6,17.2
			c5.5,4.4,11.4,7.5,17.8,9.5c6.4,2,12.3,2.9,17.8,2.9h78.4c3.1,0,6,0.5,8.6,1.6c2.6,1.1,4.8,2.5,6.6,4.5s3.2,4.2,4.1,6.8
			c1,2.6,1.4,5.5,1.4,8.7c0,6.5-1.8,11.6-5.4,15.5c-3.6,3.8-8.7,5.8-15.3,5.8H71.7v34.1h62.5c3.7,0,7.6-0.4,11.7-1.3
			c4.2-0.9,8.2-2.2,12.3-4.1c4-1.8,7.9-4.2,11.7-7.1c3.8-2.9,7-6.4,9.8-10.5c2.8-4.1,5-8.9,6.8-14.2c1.7-5.4,2.6-11.4,2.6-18.2
			C188.9,126.8,188.1,120.8,186.5,115.5z"/>
	</g>
</g>
</svg>
