<svg width="0" height="0" class="hidden">
  <symbol viewBox="0 0 80 80" fill="none" xmlns="http://www.w3.org/2000/svg" id="design-branding">
    <path d="M77.2 4.4v30.3h-18V4.4h18zM78.6 3H57.9v33.1h20.7V3z" fill="#919191"/>
    <path d="M66.1 31.8H62a.7.7 0 01-.6-.7v-4.2a.7.7 0 01.6-.7h4.2a.7.7 0 01.7.7v4.2a.7.7 0 01-.7.7zm-3.4-1.4h2.7v-2.8h-2.7v2.8zm14.5 14.8v22.2H34.4V45.2h42.8zm1.3-1.3H33v24.8h45.5V44z" fill="#919191"/>
    <path d="M77.2 45.2V48a2.8 2.8 0 01-2.8 2.8H37.2a2.8 2.8 0 01-2.8-2.8v-2.8h42.8zm1.3-1.3H33V48a4.2 4.2 0 004.2 4.2h37.2a4.2 4.2 0 004.2-4.2V44zM43.3 63.2h-4a.7.7 0 01-.7-.6v-4.2a.7.7 0 01.6-.7h4.2a.7.7 0 01.7.7v4.2a.7.7 0 01-.8.6zM40 62h2.8V59h-2.8v2.8z" fill="#919191"/>
    <path d="M51.9 67.6v8H2.3V7.2h37.3l12.3 12.3v25.4h1.3V19.2a.6.6 0 00-.2-.4L40.3 6a.7.7 0 00-.5-.2H1.7a.7.7 0 00-.7.7v69.8a.7.7 0 00.7.7h50.8a.7.7 0 00.7-.7v-8.7H52z" fill="#919191"/>
    <path d="M17.5 23.9H8.7a.7.7 0 01-.7-.7v-8.8a.7.7 0 01.7-.7h8.8a.7.7 0 01.7.7v8.8a.7.7 0 01-.7.7zm-8.1-1.4h7.4v-7.4H9.4v7.4zm55.4 40.6h-17a.7.7 0 01-.7-.7.7.7 0 01.7-.7h17a.7.7 0 110 1.4zm9.4-55.6H62.4a.7.7 0 00-.6.7.7.7 0 00.7.7h11.7a.7.7 0 100-1.4zm-33.7 25h-31a.7.7 0 010-1.4h31a.7.7 0 010 1.4zm12-12.6H39.9a.7.7 0 01-.6-.7V6.5a.7.7 0 01.4-.6.7.7 0 01.7.1l12.6 12.7a.7.7 0 01.3.5.7.7 0 01-.6.7zm-12-1.3H51L40.5 8v10.5z" fill="#919191"/>
  </symbol>
  <symbol viewBox="0 0 80 80" fill="none" xmlns="http://www.w3.org/2000/svg" id="design-e-commerce">
    <path d="M79.3 74H.7a.7.7 0 01-.7-.7V7.7A.7.7 0 01.7 7h78.6a.7.7 0 01.7.7v65.6a.7.7 0 01-.7.6zm-78-1.4h77.4V8.3H1.3v64.3z" fill="#919191"/>
    <path d="M79.3 21.6H.7a.7.7 0 010-1.3h78.6a.7.7 0 110 1.3zM8.6 17.1a2.9 2.9 0 112.9-3 2.9 2.9 0 01-2.9 3zm0-4.5a1.6 1.6 0 100 3.1 1.6 1.6 0 000-3.1zm9.7 4.5a2.9 2.9 0 113-3 2.9 2.9 0 01-3 3zm0-4.5a1.6 1.6 0 101.5 1 1.6 1.6 0 00-1.5-1zm61 2.2H35.6a.7.7 0 010-1.3h43.7a.7.7 0 010 1.3zm-7.8 49.6h-63a.7.7 0 010-1.3h63a.7.7 0 010 1.3zM48.3 51.7H32.7a.7.7 0 01-.6-.5l-4.7-13.6-1.3-4h-7a.7.7 0 110-1.4h7.6a.6.6 0 01.6.5l1.2 4H53a.7.7 0 01.7.6.7.7 0 010 .3l-4.7 13.6a.7.7 0 01-.6.5zM33 50.3h14.7L52 38.2H29L33 50.3zm1.6 8.1a2.7 2.7 0 110-5.3 2.7 2.7 0 010 5.3zm0-4a1.4 1.4 0 00-.3 2.7 1.4 1.4 0 001.7-1.4 1.4 1.4 0 00-1.4-1.3zm11.6 4a2.7 2.7 0 110-5.3 2.7 2.7 0 010 5.3zm0-4a1.4 1.4 0 101.3 1.3 1.4 1.4 0 00-1.3-1.3z" fill="#919191"/>
  </symbol>
  <symbol viewBox="0 0 80 80" fill="none" xmlns="http://www.w3.org/2000/svg" id="design-prem-land">
    <path d="M79.3 73.9H.7a.7.7 0 01-.7-.7V7.7A.7.7 0 01.7 7h78.6a.7.7 0 01.7.7v65.5a.7.7 0 01-.7.7zm-78-1.3h77.4V8.3H1.3v64.3z" fill="#919191"/>
    <path d="M79.3 21.6H.7a.7.7 0 010-1.3h78.6a.7.7 0 010 1.3zM8.6 17a2.9 2.9 0 113-2.8 2.9 2.9 0 01-3 2.9zm0-4.4a1.6 1.6 0 100 3.1 1.6 1.6 0 000-3.1zm9.7 4.5a2.9 2.9 0 113-3 2.9 2.9 0 01-3 3zm0-4.5a1.6 1.6 0 00-1.6 1.6 1.6 1.6 0 101.6-1.6zm61 2.2H35.6a.7.7 0 110-1.3h43.7a.7.7 0 110 1.3z" fill="#919191"/>
    <path d="M39.4 34.4H10a.5.5 0 110-1.1h29.4a.5.5 0 010 1zm-5.2 16.3H10a.5.5 0 110-1.1h24.2a.5.5 0 010 1zm-14-8.2H9.8a.5.5 0 110-1h10.6a.5.5 0 010 1zm19.5 0H27.4a.5.5 0 010-1h12.3a.5.5 0 010 1zm0 16.3h-8.5a.5.5 0 010-1h8.5a.5.5 0 010 1zm-15.7 0H9.7a.5.5 0 110-1H24a.5.5 0 010 1zM66.1 58.8H51.8a.4.4 0 01-.4-.4V46.7a27.2 27.2 0 015-15.8l1-1.3a2.8 2.8 0 01.1-.2 2 2 0 012.8 0l.2.2 1 1.3a27.4 27.4 0 015 15.7v11.8a.4.4 0 01-.4.4zM52.2 58h13.5V46.6a26.5 26.5 0 00-4.9-15.2l-1-1.2V30a1 1 0 00-1.6 0 1.4 1.4 0 00-.2.2l-.9 1.2a26.3 26.3 0 00-4.8 15.3V58z" fill="#919191" stroke="#919191" stroke-width=".3" stroke-miterlimit="10"/>
    <path d="M69.7 61.2H66a.4.4 0 01-.4-.5v-7a.4.4 0 01.2-.5.4.4 0 01.5.1L70 57a.4.4 0 01.1.3v3.6a.4.4 0 01-.4.4zm-3.2-.9h2.8v-3l-2.8-2.6v5.6zm-2.7 6.9h-9.6a.4.4 0 01-.5-.4 4.7 4.7 0 01.6-2.5L55 63a.4.4 0 01.4-.3h7.1a.4.4 0 01.4.3l.7 1.4c.3.7.5 1.5.5 2.2a.4.4 0 010 .2.4.4 0 01-.3.4zm-9.1-.9h8.6a4.8 4.8 0 00-.4-1.6l-.6-1.1h-6.6l-.6 1.1a3.7 3.7 0 00-.4 1.6zm-3-5.1h-3.5a.4.4 0 01-.4-.5v-3.5a.4.4 0 01.1-.3l3.6-3.6a.4.4 0 01.7.3v7.2a.4.4 0 01-.4.4zm-3.1-.8h2.7v-5.7l-2.7 2.7v3z" fill="#919191" stroke="#919191" stroke-width=".3" stroke-miterlimit="10"/>
    <path d="M61.5 45.1a3.6 3.6 0 100 5 3.6 3.6 0 000-5z" stroke="#919191" stroke-miterlimit="10"/>
    <path d="M65.3 63.6H52.6a1.2 1.2 0 01-1.2-1.3v-3.9a.4.4 0 01.4-.4h14.3a.4.4 0 01.4.4v4a1.2 1.2 0 01-1.2 1.2zm-13-4.8v3.5a.4.4 0 00.3.4h12.7a.4.4 0 00.4-.4v-3.5H52.2zm12.4-20.3H53.2a.4.4 0 01-.3-.1.4.4 0 010-.4 26 26 0 013.5-7.1l1-1.3v0l.1-.2a2 2 0 012.8 0l.2.2 1 1.2a29.2 29.2 0 013.6 7.1.4.4 0 010 .4.4.4 0 01-.4.2zm-10.9-.8h10.3a28.6 28.6 0 00-3.3-6.3l-1-1.4a1.1 1.1 0 00-1.7 0h0l-1 1.4a24.7 24.7 0 00-3.3 6.3zM50.2 73l1.4-5.7a.4.4 0 01.6-.3.4.4 0 01.3.5l-1.6 6-.7-.5zM67 73l-1.4-5.5a.4.4 0 11.8-.2l1.5 6-1-.3zm-7.8-4a.5.5 0 00-.6.5V73a.5.5 0 001 0v-3.5a.5.5 0 00-.4-.5z" fill="#919191" stroke="#919191" stroke-width=".3" stroke-miterlimit="10"/>
  </symbol>
  <symbol viewBox="0 0 80 80" fill="none" xmlns="http://www.w3.org/2000/svg" id="design-respond-web">
    <path d="M34.1 16.9H8.6a.5.5 0 010-1h25.5a.5.5 0 110 1zm-4.6 14H8.7a.5.5 0 010-.9h21a.5.5 0 110 1zm-12-7H8.4a.5.5 0 010-1h9.1a.5.5 0 010 1zm16.8 0H23.7a.5.5 0 110-1h10.6a.5.5 0 110 1zm0 14.1H27a.5.5 0 110-1h7.3a.5.5 0 110 1zm-13.5 0H8.3a.5.5 0 010-1h12.3a.5.5 0 010 1z" fill="#919191" stroke="#919191" stroke-width=".3" stroke-miterlimit="10"/>
    <path d="M51.2 38a.5.5 0 01-.4-.3l-10-13.2a.5.5 0 010-.5l3.8-5.8a.5.5 0 01.4-.3h12.4a.5.5 0 01.4.3l3.8 5.8a.5.5 0 010 .5l-10 13.2a.5.5 0 01-.4.2zm-9.4-13.8l9.4 12.4 9.3-12.4L57 19H45.3l-3.5 5.2z" fill="#919191" stroke="#919191" stroke-width=".1" stroke-miterlimit="10"/>
    <path d="M61.2 24.8h-20a.5.5 0 01-.4-1 .5.5 0 01.4 0h20a.5.5 0 01.3.8.5.5 0 01-.3.1z" fill="#919191" stroke="#919191" stroke-width=".1" stroke-miterlimit="10"/>
    <path d="M51.2 38a.5.5 0 01-.5-.4l-5.3-13.2a.5.5 0 010-.3l2.2-5.8a.5.5 0 01.7-.3.5.5 0 01.3.6l-2.2 5.6 5.3 13a.5.5 0 01-.3.7.5.5 0 01-.2 0z" fill="#919191" stroke="#919191" stroke-width=".1" stroke-miterlimit="10"/>
    <path d="M51.2 38a.5.5 0 01-.2 0 .5.5 0 01-.3-.7l5.3-13-2.2-5.7a.5.5 0 01.3-.6.5.5 0 01.7.3L57 24a.5.5 0 010 .3l-5.3 13.2a.5.5 0 01-.5.3z" fill="#919191" stroke="#919191" stroke-width=".1" stroke-miterlimit="10"/>
    <path d="M51.2 38a.5.5 0 01-.5-.6v-19a.5.5 0 011 0v19a.5.5 0 01-.5.5z" fill="#919191" stroke="#919191" stroke-width=".1" stroke-miterlimit="10"/>
    <path d="M68.9 56a.3.3 0 01-.3-.1l-6-8a.3.3 0 010-.4l2.3-3.5a.3.3 0 01.2-.1h7.5a.3.3 0 01.3.1l2.3 3.5a.3.3 0 010 .4l-6 8a.3.3 0 01-.3 0zm-5.7-8.3l5.7 7.4 5.7-7.5-2.1-3.2h-7.2l-2.1 3.3z" fill="#919191" stroke="#919191" stroke-width=".3" stroke-miterlimit="10"/>
    <path d="M75 48H62.7a.3.3 0 01-.3-.5.3.3 0 01.3-.2h12.1a.3.3 0 01.3.4.3.3 0 01-.3.3z" fill="#919191" stroke="#919191" stroke-width=".3" stroke-miterlimit="10"/>
    <path d="M68.9 56a.3.3 0 01-.3-.2l-3.3-8a.3.3 0 010-.3l1.4-3.5a.3.3 0 01.4-.2.3.3 0 01.2.5L66 47.7l3.2 7.9a.3.3 0 01-.2.4.3.3 0 01-.1 0z" fill="#919191" stroke="#919191" stroke-width=".3" stroke-miterlimit="10"/>
    <path d="M68.9 56a.2.2 0 01-.1 0 .3.3 0 01-.2-.4l3.2-7.9-1.3-3.4a.3.3 0 01.1-.4.3.3 0 01.4.2l1.4 3.5a.3.3 0 010 .2l-3.2 8a.3.3 0 01-.3.2z" fill="#919191" stroke="#919191" stroke-width=".3" stroke-miterlimit="10"/>
    <path d="M68.9 56a.3.3 0 01-.3-.3V44a.3.3 0 01.6 0v11.6a.3.3 0 01-.3.3z" fill="#919191" stroke="#919191" stroke-width=".3" stroke-miterlimit="10"/>
    <path d="M42.9 68H26.3a.5.5 0 01-.4-.2.6.6 0 01-.1-.5l1.3-8.4a.6.6 0 01.6-.5h13.9a.6.6 0 01.5.5l1.3 8.3a.4.4 0 010 .2.6.6 0 01-.5.6zm-16-1.2h15.3l-1-7.3h-13L27 66.8z" fill="#919191"/>
    <path d="M48.2 72.3H21a.6.6 0 01-.6-.6v-4.3a.6.6 0 01.6-.6h27.2a.6.6 0 01.6.6v4.3a.6.6 0 01-.6.6zM21.6 71h26V68h-26V71zM57.7 49H.5a.6.6 0 010-1.2h57.2a.6.6 0 010 1.2zm-23 7.7a3 3 0 11-.2-6 3 3 0 01.1 6zm0-4.9a1.9 1.9 0 100 3.8 1.9 1.9 0 000-3.8z" fill="#919191"/>
    <path d="M74.4 63h-11a.3.3 0 01-.3-.3.3.3 0 01.3-.3h11a.3.3 0 01.3.3.3.3 0 01-.3.4zm0-4h-11a.3.3 0 110-.7h11a.3.3 0 010 .7zM78 72.3H59.8a2 2 0 01-2-2v-3.8a.3.3 0 01.3-.3h21.6a.3.3 0 01.3.3v3.7a2 2 0 01-2 2zm-19.6-5.5v3.5a1.4 1.4 0 001.4 1.3H78a1.4 1.4 0 001.3-1.3v-3.5h-21zm21.3-26.4H58a.3.3 0 01-.4-.4v-3.7a2 2 0 012-2H78a2 2 0 012 2v3.8a.3.3 0 01-.3.3zm-21.3-.7h21v-3.4a1.4 1.4 0 00-1.4-1.4H59.8a1.4 1.4 0 00-1.4 1.4v3.4z" fill="#919191" stroke="#919191" stroke-width=".5" stroke-miterlimit="10"/>
    <path d="M68.9 70.9a1.6 1.6 0 110-3.2 1.6 1.6 0 010 3.2zm0-2.5a.9.9 0 10.8.8.9.9 0 00-.8-.9v0zM71 37.7h-4.3a.3.3 0 01-.4-.3.3.3 0 01.4-.4H71a.3.3 0 01.3.2v.2a.3.3 0 01-.3.3z" fill="#919191" stroke="#919191" stroke-width=".5" stroke-miterlimit="10"/>
    <path d="M78 72.3H59.8a2 2 0 01-2-2v-34a2 2 0 012-2H78a2 2 0 012 2v34a2 2 0 01-2 2zM59.8 34.9a1.4 1.4 0 00-1.4 1.4v34a1.4 1.4 0 001.4 1.3H78a1.4 1.4 0 001.3-1.3v-34a1.4 1.4 0 00-1.3-1.4H59.8z" fill="#919191" stroke="#919191" stroke-width=".5" stroke-miterlimit="10"/>
    <path d="M58.2 58.4H3a2 2 0 01-2-1.9V10a2 2 0 012-1.9h63a2 2 0 012 2V35h1.1V10a3 3 0 00-3-3H3a3 3 0 00-3 3v46.5a3 3 0 003 3h55.2v-1z" fill="#919191"/>
  </symbol>
  <symbol viewBox="0 0 80 80" fill="none" xmlns="http://www.w3.org/2000/svg" id="design-ui-ux">
    <path d="M77.1 80H3.6a.6.6 0 01-.6-.6V22.8a.6.6 0 01.6-.6h73.5a.6.6 0 01.6.6v56.6a.6.6 0 01-.6.6zM4.2 78.8h72.3V23.5H4.2v55.3z" fill="#919191"/>
    <path d="M33.2 35.9H3.6a.6.6 0 010-1.3h30.2v.7a.6.6 0 01-.6.6zm44 0H47.4a.6.6 0 01-.6-.6v-.7h30.2a.6.6 0 110 1.3zM11 31.6a2.7 2.7 0 112.7-2.7 2.7 2.7 0 01-2.7 2.7zm0-4.2a1.5 1.5 0 101.5 1.5 1.5 1.5 0 00-1.5-1.5zm9.1 4.2a2.7 2.7 0 112.7-2.7 2.7 2.7 0 01-2.7 2.7zm0-4.2a1.5 1.5 0 00-1.5 1.5 1.5 1.5 0 101.5-1.5zm57 2.1h-22a.6.6 0 01-.5-.6.6.6 0 01.6-.6h22a.6.6 0 01.5.6.6.6 0 01-.6.6zM44 23.2h-7a.6.6 0 01-.6-.6V4.1a4.1 4.1 0 018.2 0v18.5a.6.6 0 01-.6.6zM37.5 22h5.8V4a2.9 2.9 0 00-5.8 0V22z" fill="#919191"/>
    <path d="M40.2 64.1a.6.6 0 01-.5-.2L29.4 48a.6.6 0 010-.6l7-20.5h8l7 20.5a.6.6 0 01-.1.6L40.8 63.9a.6.6 0 01-.6.2zm-9.6-16.4l9.7 14.7 9.9-14.7-6.8-19.9h-6l-6.8 19.9z" fill="#919191"/>
    <path d="M46.6 28H34.2a.6.6 0 01-.6-.6v-4.6a.6.6 0 01.6-.6h12.4a.6.6 0 01.6.6v4.6a.6.6 0 01-.6.6zm-11.8-1.2H46v-3.3H34.8v3.3zM40.4 47a4 4 0 11.1-7.8 4 4 0 01-.1 7.8zm0-6.6a2.7 2.7 0 100 5.4 2.7 2.7 0 000-5.4z" fill="#919191"/>
    <path d="M40.2 64.1a.6.6 0 01-.6-.6l.2-17.2a.6.6 0 01.6-.6.6.6 0 01.6.6l-.1 17.2a.6.6 0 01-.7.6z" fill="#919191"/>
    <path d="M45.8 71H35a.6.6 0 01-.6-.6v-6.2a.6.6 0 01.6-.6h11a.6.6 0 01.5.6v6.2a.6.6 0 01-.6.6zm-10.2-1.2h9.6v-5h-9.6v5zm32.9-.3H63a.6.6 0 01-.7-.6v-3.1a.6.6 0 01.7-.7h5.5a.6.6 0 01.6.7v3a.6.6 0 01-.6.7zm-5-1.2H68v-2h-4.3v2z" fill="#919191"/>
    <path d="M63 68H45.8a.6.6 0 01-.5-1 .6.6 0 01.5-.3H63a.6.6 0 01.6.6.6.6 0 01-.6.6zm-45.2 1.5h-5.5a.6.6 0 01-.7-.6v-3.1a.6.6 0 01.7-.7h5.5a.6.6 0 01.6.7v3a.6.6 0 01-.6.7zm-5-1.2h4.4v-2h-4.3v2z" fill="#919191"/>
    <path d="M34.9 68H17.8a.6.6 0 01-.6-1 .6.6 0 01.6-.3h17.1a.6.6 0 01.6.6.6.6 0 01-.6.6z" fill="#919191"/>
  </symbol>
  <symbol viewBox="0 0 80 80" fill="none" xmlns="http://www.w3.org/2000/svg" id="mob-app">
    <path d="M57.4 32.7a3.3 3.3 0 110-6.7 3.3 3.3 0 010 6.7zm0-5.5a2.2 2.2 0 102.2 2.2 2.2 2.2 0 00-2.2-2.3zM63.6 41H51.2a.6.6 0 01-.6-.6 6.1 6.1 0 012.2-4.8 7.5 7.5 0 019.2 0 6.1 6.1 0 012.2 4.8.6.6 0 01-.6.6zM51.7 40H63c-.3-3.3-3-4.8-5.6-4.8-2.6 0-5.4 1.5-5.7 4.8zm15.2 14h-19a.6.6 0 01-.5-.5.6.6 0 01.5-.5h19a.6.6 0 01.5.5.6.6 0 01-.5.6zm0-7h-19a.6.6 0 110-1.2h19a.6.6 0 110 1.2zM73.2 73H41.6a3.5 3.5 0 01-3.5-3.5V63a.6.6 0 01.5-.6h37.5a.6.6 0 01.6.6v6.5a3.5 3.5 0 01-3.5 3.5zm-34-9.5v6a2.4 2.4 0 002.4 2.4h31.6a2.4 2.4 0 002.4-2.4v-6H39.2zm37-46H38.5a.6.6 0 01-.5-.5v-6.5A3.5 3.5 0 0141.6 7h31.6a3.5 3.5 0 013.5 3.5V17a.6.6 0 01-.6.6zm-37-1h36.4v-6A2.4 2.4 0 0073.2 8H41.6a2.4 2.4 0 00-2.4 2.4v6z" fill="#919191"/>
    <path d="M57.4 70.5a2.7 2.7 0 112.7-2.8 2.7 2.7 0 01-2.7 2.8zm0-4.3a1.6 1.6 0 100 3.1 1.6 1.6 0 000-3.1zM61.2 13h-7.6a.6.6 0 01-.4-1 .6.6 0 01.4-.2h7.6a.6.6 0 01.5.6.6.6 0 01-.5.6z" fill="#919191"/>
    <path d="M73.2 73H41.6a3.5 3.5 0 01-3.5-3.5v-59A3.5 3.5 0 0141.6 7h31.6a3.5 3.5 0 013.5 3.5v59a3.5 3.5 0 01-3.5 3.5zM41.6 8.1a2.4 2.4 0 00-2.4 2.4v59a2.4 2.4 0 002.4 2.4h31.6a2.4 2.4 0 002.4-2.4v-59a2.4 2.4 0 00-2.4-2.4H41.6zM14.6 35v37.5a.6.6 0 01-.6.6H7.5A3.5 3.5 0 014 69.5V37.9a3.5 3.5 0 013.5-3.5H14a.6.6 0 01.6.5zm-1.1 37V35.5h-6A2.4 2.4 0 005 37.9v31.6a2.4 2.4 0 002.4 2.4h6z" fill="#919191"/>
    <path d="M10 50v7.4a.6.6 0 01-1 .4.6.6 0 01-.2-.4V50a.6.6 0 01.6-.6.6.6 0 01.6.6z" fill="#919191"/>
    <path d="M51 71.9H7.6a2.4 2.4 0 01-2.4-2.4V38a2.4 2.4 0 012.4-2.4h31.6v-1.1H7.5A3.5 3.5 0 004 37.9v31.6A3.5 3.5 0 007.5 73h43.6v-1.1z" fill="#919191"/>
  </symbol>
  <symbol viewBox="0 0 80 80" fill="none" xmlns="http://www.w3.org/2000/svg" id="mob-dashboards">
    <g clip-path="url(#clip0)" fill="#919191">
      <path d="M78.5 69.8H.7a.7.7 0 01-.7-.6V10.6a.7.7 0 01.7-.6h77.8a.6.6 0 01.6.7v58.5a.6.6 0 01-.6.7zM1.3 68.5h76.5V11.3H1.3v57.3z"/>
      <path d="M78.5 24.4H.7a.7.7 0 010-1.2h77.8a.7.7 0 010 1.2zm-62.3-6.9H7.6A.7.7 0 017 17a.6.6 0 01.6-.7h8.7a.7.7 0 110 1.3zM55.6 58h-3.2a.7.7 0 01-.6-.6V46.3a.7.7 0 01.6-.7h3.2a.7.7 0 01.7.7v11.1a.7.7 0 01-.7.7zm-2.5-1.3H55V47h-2v9.9zm8 1.3H58a.7.7 0 01-.6-.6V44a.7.7 0 01.6-.7h3.2a.7.7 0 01.7.7v13.4a.7.7 0 01-.7.7zm-2.5-1.3h1.9v-12h-2v12zm8 1.3h-3.2a.7.7 0 01-.6-.6V47.2a.7.7 0 01.6-.6h3.2a.7.7 0 01.7.6v10.2a.7.7 0 01-.7.7zm-2.5-1.3H66V48h-2v8.9zm7 4.2H48.6a.7.7 0 010-1.3H71a.7.7 0 110 1.3z"/>
      <path d="M37.3 59.8H8.2a.5.5 0 000 1h29a.5.5 0 100-1zM32 43.7H8a.5.5 0 000 1h24a.5.5 0 100-1zm-13.8 8H8a.5.5 0 000 1.1h10.4a.5.5 0 000-1zm19.3 0H25.4a.5.5 0 100 1.1h12.2a.5.5 0 100-1z" stroke="#919191" stroke-width=".3" stroke-miterlimit="10"/>
      <path d="M38.3 37.6H8a.6.6 0 01-.5-.6v-5.3a.6.6 0 01.5-.5h30.4a.6.6 0 01.6.5V37a.6.6 0 01-.6.6zM8.5 36.5h29.3v-4.2H8.4v4.2zm61.7 1h-5.3a.6.6 0 01-.6-.5v-5.3a.6.6 0 01.6-.5h5.3a.6.6 0 01.6.5V37a.6.6 0 01-.6.6zm-4.7-1h4.1v-4.2h-4.1v4.1zm-3.6 1h-5.3a.6.6 0 01-.5-.5v-5.3a.6.6 0 01.5-.5H62a.6.6 0 01.6.5V37a.6.6 0 01-.6.6zm-4.7-1h4.2v-4.2h-4.2v4.1zm-3.5 1h-5.3a.6.6 0 01-.6-.5v-5.3a.6.6 0 01.6-.5h5.3a.6.6 0 01.5.5V37a.6.6 0 01-.5.6zm-4.7-1h4.2v-4.2H49v4.1z"/>
    </g>
    <defs>
      <clipPath id="clip0">
        <path fill="#fff" d="M0 10h79.1v59.9H0z"/>
      </clipPath>
    </defs>
  </symbol>
  <symbol viewBox="0 0 80 80" fill="none" xmlns="http://www.w3.org/2000/svg" id="mob-e-commerce">
    <path d="M63 41.5H52a.5.5 0 01-.5-.3l-3.3-9.7-1-2.9h-5a.5.5 0 01-.4-.4.5.5 0 01.4-.5h5.5a.5.5 0 01.4.3L49 31h17.4a.5.5 0 01.3.2.4.4 0 010 .4l-3.3 9.7a.4.4 0 01-.3.3zm-10.7-.9h10.4l3-8.7H49.3l3 8.7zm1.1 5.7a2 2 0 112-1.8 1.9 1.9 0 01-2 1.8zm0-2.8a1 1 0 100 2 1 1 0 000-2zm8.2 2.8a2 2 0 112-1.8 1.9 1.9 0 01-2 1.8zm0-2.8a1 1 0 100 2 1 1 0 000-2zM66.8 61h-19a.6.6 0 01-.5-.5.6.6 0 01.6-.6h18.9a.6.6 0 01.6.6.6.6 0 01-.6.5zm0-7h-19a.6.6 0 010-1.2h19a.6.6 0 110 1.1zm6.3 23H41.5a3.5 3.5 0 01-3.5-3.5V67a.6.6 0 01.6-.6H76a.6.6 0 01.6.6v6.5A3.5 3.5 0 0173 77zm-34-9.4v6a2.4 2.4 0 002.4 2.3h31.6a2.4 2.4 0 002.4-2.4v-6H39.1zm37-46H38.6a.6.6 0 01-.6-.6v-6.5a3.5 3.5 0 013.5-3.5h31.6a3.5 3.5 0 013.6 3.5V21a.6.6 0 01-.6.6zm-37-1.1h36.4v-6a2.4 2.4 0 00-2.4-2.4H41.5a2.4 2.4 0 00-2.4 2.4v6z" fill="#919191"/>
    <path d="M57.3 74.5a2.7 2.7 0 110-5.4 2.7 2.7 0 010 5.4zm0-4.3a1.6 1.6 0 101.6 1.6 1.6 1.6 0 00-1.6-1.6zm3.8-53.3h-7.6a.6.6 0 010-1h7.6a.6.6 0 010 1z" fill="#919191"/>
    <path d="M73.1 77H41.5a3.5 3.5 0 01-3.5-3.5v-59a3.5 3.5 0 013.5-3.5h31.6a3.5 3.5 0 013.6 3.5v59A3.5 3.5 0 0173 77zM41.5 12.1a2.4 2.4 0 00-2.4 2.4v59a2.4 2.4 0 002.4 2.4h31.6a2.4 2.4 0 002.4-2.4v-59a2.4 2.4 0 00-2.4-2.4H41.5zM14.5 39v37.5a.6.6 0 01-.5.6H7.5A3.5 3.5 0 014 73.5V41.9a3.5 3.5 0 013.5-3.5H14a.6.6 0 01.6.5zm-1 37V39.5h-6A2.4 2.4 0 005 41.9v31.6a2.4 2.4 0 002.4 2.4h6z" fill="#919191"/>
    <path d="M10 54v7.4a.6.6 0 01-1 .4.6.6 0 01-.2-.4V54a.6.6 0 011-.4l.2.4z" fill="#919191"/>
    <path d="M51 75.9H7.6a2.4 2.4 0 01-2.4-2.4V42a2.4 2.4 0 012.4-2.4h31.6v-1.1H7.5A3.5 3.5 0 004 41.9v31.6A3.5 3.5 0 007.5 77h43.6v-1.1z" fill="#919191"/>
  </symbol>
  <symbol viewBox="0 0 80 80" fill="none" xmlns="http://www.w3.org/2000/svg" id="mob-respond-web">
    <path d="M34.1 16.9H8.6a.5.5 0 010-1h25.5a.5.5 0 110 1zm-4.6 14H8.7a.5.5 0 010-.9h21a.5.5 0 110 1zm-12-7H8.4a.5.5 0 010-1h9.1a.5.5 0 010 1zm16.8 0H23.7a.5.5 0 110-1h10.6a.5.5 0 01.5.7.5.5 0 01-.5.3zm0 14.1H27a.5.5 0 110-1h7.3a.5.5 0 110 1zm-13.5 0H8.3a.5.5 0 010-1h12.3a.5.5 0 010 1z" fill="#909090" stroke="#909090" stroke-width=".3" stroke-miterlimit="10"/>
    <path d="M51.2 38a.5.5 0 01-.4-.3l-10-13.2a.5.5 0 010-.5l3.8-5.8a.5.5 0 01.4-.3h12.4a.5.5 0 01.4.3l3.8 5.8a.5.5 0 010 .5l-10 13.2a.5.5 0 01-.4.2zm-9.4-13.8l9.4 12.4 9.3-12.4L57 19H45.3l-3.5 5.2z" fill="#909090" stroke="#909090" stroke-width=".1" stroke-miterlimit="10"/>
    <path d="M61.2 24.8h-20a.5.5 0 01-.4-1 .5.5 0 01.4 0h20a.5.5 0 01.3.8.5.5 0 01-.3.1z" fill="#909090" stroke="#909090" stroke-width=".1" stroke-miterlimit="10"/>
    <path d="M51.2 38a.5.5 0 01-.5-.4l-5.3-13.2a.5.5 0 010-.3l2.2-5.8a.5.5 0 01.7-.3.5.5 0 01.3.6l-2.2 5.6 5.3 13a.5.5 0 01-.5.7z" fill="#909090" stroke="#909090" stroke-width=".1" stroke-miterlimit="10"/>
    <path d="M51.2 38a.5.5 0 01-.2 0 .5.5 0 01-.3-.7l5.3-13-2.2-5.7a.5.5 0 01.3-.6.5.5 0 01.7.3L57 24a.5.5 0 010 .3l-5.3 13.2a.5.5 0 01-.5.3z" fill="#909090" stroke="#909090" stroke-width=".1" stroke-miterlimit="10"/>
    <path d="M51.2 38a.5.5 0 01-.5-.6v-19a.5.5 0 011 0v19a.5.5 0 01-.5.5z" fill="#909090" stroke="#909090" stroke-width=".1" stroke-miterlimit="10"/>
    <path d="M68.9 56a.3.3 0 01-.3-.1l-6-8a.3.3 0 010-.4l2.3-3.5a.3.3 0 01.2-.1h7.5a.3.3 0 01.3.1l2.3 3.5a.3.3 0 010 .4l-6 8a.3.3 0 01-.3 0zm-5.7-8.3l5.7 7.4 5.7-7.5-2.1-3.2h-7.2l-2.1 3.3z" fill="#909090" stroke="#909090" stroke-width=".3" stroke-miterlimit="10"/>
    <path d="M75 48H62.7a.3.3 0 01-.3-.5.3.3 0 01.3-.2h12.1a.3.3 0 01.3.4.3.3 0 01-.3.3z" fill="#909090" stroke="#909090" stroke-width=".3" stroke-miterlimit="10"/>
    <path d="M68.9 56a.3.3 0 01-.3-.2l-3.3-8a.3.3 0 010-.3l1.4-3.5a.3.3 0 01.4-.2.3.3 0 01.2.5L66 47.7l3.2 7.9a.3.3 0 01-.2.4.3.3 0 01-.1 0z" fill="#909090" stroke="#909090" stroke-width=".3" stroke-miterlimit="10"/>
    <path d="M68.9 56a.2.2 0 01-.1 0 .3.3 0 01-.2-.4l3.2-7.9-1.3-3.4a.3.3 0 01.1-.4.3.3 0 01.4.2l1.4 3.5a.3.3 0 010 .2l-3.2 8a.3.3 0 01-.3.2z" fill="#909090" stroke="#909090" stroke-width=".3" stroke-miterlimit="10"/>
    <path d="M68.9 56a.3.3 0 01-.3-.3V44a.3.3 0 01.6 0v11.6a.3.3 0 01-.3.3z" fill="#909090" stroke="#909090" stroke-width=".3" stroke-miterlimit="10"/>
    <path d="M42.9 68H26.3a.5.5 0 01-.4-.2.6.6 0 01-.1-.5l1.3-8.4a.6.6 0 01.6-.5h13.9a.6.6 0 01.5.5l1.3 8.3a.4.4 0 010 .2.6.6 0 01-.5.6zm-16-1.2h15.3l-1-7.3h-13L27 66.8z" fill="#909090"/>
    <path d="M48.2 72.3H21a.6.6 0 01-.6-.6v-4.3a.6.6 0 01.6-.6h27.2a.6.6 0 01.6.6v4.3a.6.6 0 01-.6.6zM21.6 71h26V68h-26V71zM57.7 49H.5a.6.6 0 010-1.2h57.2a.6.6 0 010 1.2zm-23 7.7a3 3 0 11-.2-6 3 3 0 01.1 6zm0-4.9a1.9 1.9 0 100 3.8 1.9 1.9 0 000-3.8z" fill="#909090"/>
    <path d="M74.4 63h-11a.3.3 0 01-.3-.3.3.3 0 01.3-.3h11a.3.3 0 01.3.3.3.3 0 01-.3.4zm0-4h-11a.3.3 0 110-.7h11a.3.3 0 010 .7zM78 72.3H59.8a2 2 0 01-2-2v-3.8a.3.3 0 01.3-.3h21.6a.3.3 0 01.3.3v3.7a2 2 0 01-2 2zm-19.6-5.5v3.5a1.4 1.4 0 001.4 1.3H78a1.4 1.4 0 001.3-1.3v-3.5h-21zm21.3-26.4H58a.3.3 0 01-.4-.4v-3.7a2 2 0 012-2H78a2 2 0 012 2v3.8a.3.3 0 01-.3.3zm-21.3-.7h21v-3.4a1.4 1.4 0 00-1.4-1.4H59.8a1.4 1.4 0 00-1.4 1.4v3.4z" fill="#909090" stroke="#909090" stroke-width=".5" stroke-miterlimit="10"/>
    <path d="M68.9 70.9a1.6 1.6 0 110-3.2 1.6 1.6 0 010 3.2zm0-2.5a.9.9 0 10.8.8.9.9 0 00-.8-.9v0zM71 37.7h-4.3a.3.3 0 01-.4-.3.3.3 0 01.4-.4H71a.3.3 0 01.3.2v.2a.3.3 0 01-.3.3z" fill="#909090" stroke="#909090" stroke-width=".5" stroke-miterlimit="10"/>
    <path d="M78 72.3H59.8a2 2 0 01-2-2v-34a2 2 0 012-2H78a2 2 0 012 2v34a2 2 0 01-2 2zM59.8 34.9a1.4 1.4 0 00-1.4 1.4v34a1.4 1.4 0 001.4 1.3H78a1.4 1.4 0 001.3-1.3v-34a1.4 1.4 0 00-1.3-1.4H59.8z" fill="#909090" stroke="#909090" stroke-width=".5" stroke-miterlimit="10"/>
    <path d="M58.2 58.4H3a2 2 0 01-2-1.9V10a2 2 0 012-1.9h63a2 2 0 012 2V35h1.1V10a3 3 0 00-3-3H3a3 3 0 00-3 3v46.5a3 3 0 003 3h55.2v-1z" fill="#909090"/>
  </symbol>
  <symbol viewBox="0 -5 80 80" fill="none" xmlns="http://www.w3.org/2000/svg" id="web-app">
    <path d="M76.5 60.7h-73A3.5 3.5 0 010 57.2V3.5A3.5 3.5 0 013.5 0h73A3.5 3.5 0 0180 3.5v53.7a3.5 3.5 0 01-3.5 3.5zM3.5 1.3a2.2 2.2 0 00-2.2 2.2v53.7a2.2 2.2 0 002.2 2.2h73a2.2 2.2 0 002.2-2.2V3.5a2.2 2.2 0 00-2.2-2.2h-73z" fill="#919191"/>
    <path d="M49.5 70.4h-19a.6.6 0 01-.6-.2.7.7 0 01-.1-.5l1.5-9.7a.7.7 0 01.7-.6h16a.7.7 0 01.7.6l1.5 9.5a.5.5 0 010 .3.7.7 0 01-.7.6zm-18.3-1.3h17.6l-1.3-8.4h-15l-1.3 8.4z" fill="#919191"/>
    <path d="M55.7 75.4H24.3a.7.7 0 01-.7-.6v-5a.7.7 0 01.7-.7h31.4a.7.7 0 01.7.6v5a.7.7 0 01-.7.7zM25 74.1h30.2v-3.7H24.9v3.7zm54.4-25.6H.7a.7.7 0 010-1.3h78.6a.7.7 0 010 1.3zm-39.3 9a3.5 3.5 0 11-.1-7 3.5 3.5 0 010 7zm0-5.7a2.2 2.2 0 100 4.3 2.2 2.2 0 000-4.3z" fill="#919191"/>
    <path d="M66.6 48.5H13.4a.7.7 0 01-.7-.6V9.6a.7.7 0 01.7-.7h53.2a.7.7 0 01.7.7v38.3a.7.7 0 01-.7.6zM14 47.2h52v-37H14v37z" fill="#919191"/>
    <path d="M66.6 19.2H13.4a.7.7 0 110-1.3h53.2a.7.7 0 110 1.3zm-11.1 6h-31a.7.7 0 010-1.3h31a.7.7 0 010 1.3zm-6 11.5h-25a.7.7 0 010-1.3h25a.7.7 0 010 1.3zM34 31h-9.6a.7.7 0 010-1.3h9.6a.7.7 0 010 1.3zm21.9 0H41.9a.7.7 0 010-1.3h13.9a.7.7 0 010 1.3zm0 11.6H46a.7.7 0 110-1.4h9.7a.7.7 0 010 1.4zm-17.7 0H24.3a.7.7 0 110-1.4H38a.7.7 0 110 1.4zM20.7 16.2a2.2 2.2 0 01-2.4-2.1 2.2 2.2 0 012.4-2.1 2.2 2.2 0 012.3 2 2.2 2.2 0 01-2.3 2.2zm0-3c-.6 0-1 .4-1 .9a1 1 0 001 .8 1 1 0 001-.8 1 1 0 00-1-.9zm11.3 3a2.2 2.2 0 01-2.4-2.1 2.4 2.4 0 014.7 0 2.2 2.2 0 01-2.3 2zm0-3c-.6 0-1 .4-1 .9a1 1 0 001 .8 1 1 0 001-.8 1 1 0 00-1-.9zm11.3 3A2.2 2.2 0 0141 14a2.4 2.4 0 014.7 0 2.2 2.2 0 01-2.4 2zm0-3c-.5 0-1 .4-1 .9a1 1 0 102 0c0-.5-.4-.9-1-.9z" fill="#919191"/>
  </symbol>
  <symbol viewBox="0 0 80 80" fill="none" xmlns="http://www.w3.org/2000/svg" id="web-content-manage">
    <path d="M79.3 74.2H.7a.7.7 0 01-.7-.7V7.7A.7.7 0 01.7 7h78.6a.7.7 0 01.7.7v65.8a.7.7 0 01-.7.7zm-78-1.3h77.4V8.3H1.3V73z" fill="#919191"/>
    <path d="M79.3 23.7H.7a.7.7 0 110-1.3h78.6a.7.7 0 110 1.3zm-67.9-5.2a3.1 3.1 0 110-6.3 3.1 3.1 0 010 6.3zm0-5a1.8 1.8 0 101.9 1.8 1.8 1.8 0 00-1.9-1.8zm16.8 5a3.1 3.1 0 113.1-3.2 3.2 3.2 0 01-3.1 3.2zm0-5a1.8 1.8 0 101.8 1.8 1.8 1.8 0 00-1.8-1.8zm16.7 5a3.1 3.1 0 110-6.3 3.1 3.1 0 010 6.3zm0-5a1.8 1.8 0 101.8 1.8 1.8 1.8 0 00-1.8-1.8z" fill="#919191"/>
    <path d="M20.4 74v-3.1a.8.8 0 01.8-.8h3a.7.7 0 00.6-.5 15.4 15.4 0 012-5 .7.7 0 00-.1-1l-2-2a.8.8 0 010-1l2.8-2.9a.8.8 0 011.1 0l2 2a.7.7 0 00.8 0 15.5 15.5 0 015.2-2.1.7.7 0 00.5-.7v-2.7a.8.8 0 01.8-.8h4a.8.8 0 01.9.8v2.6a.7.7 0 00.5.7 15.5 15.5 0 015.2 2.2.7.7 0 00.9-.1l2-2a.8.8 0 011 0l2.9 3a.8.8 0 010 1l-2 2a.7.7 0 00-.2.9 15.2 15.2 0 012 5 .7.7 0 00.7.6h3a.8.8 0 01.8.8v3H61v-3a2.2 2.2 0 00-.7-1.5 2.2 2.2 0 00-1.5-.6h-2.4a17 17 0 00-1.8-4.5l1.7-1.6a2.2 2.2 0 000-3l-2.9-3a2.2 2.2 0 00-3 0l-1.6 1.6a17.1 17.1 0 00-4.5-2v-2.1a2.2 2.2 0 00-.7-1.6 2.2 2.2 0 00-1.5-.6h-4.2a2.2 2.2 0 00-2 1.3l-.2.9v2a16.7 16.7 0 00-4.6 2l-1.5-1.5a2.2 2.2 0 00-3 0l-3 2.8a2.2 2.2 0 000 3l1.7 1.7a16.4 16.4 0 00-1.7 4.6h-2.4a2.2 2.2 0 00-2 1.3 2.2 2.2 0 00-.2.9v3h1.4z" fill="#909090"/>
    <path d="M32.4 73a7.6 7.6 0 012.2-5.3 7.6 7.6 0 015.4-2.2h1a7.6 7.6 0 014.7 2.5 7.6 7.6 0 011.9 5 6.1 6.1 0 01-.1 1h1.4l.1-1a9 9 0 00-2.2-6 9 9 0 00-5.6-3 7.5 7.5 0 00-1.2 0 9 9 0 00-6.3 2.6A9 9 0 0031 73a8.2 8.2 0 000 1h1.5a8.1 8.1 0 01-.1-1z" fill="#909090"/>
    <path d="M68 34.3H12.7a.7.7 0 010-1.3H68a.7.7 0 010 1.3zm-45 10H12.7a.7.7 0 010-1.4H23a.7.7 0 010 1.3zm44.6 0h-35a.7.7 0 010-1.4h35a.7.7 0 010 1.3z" fill="#919191"/>
  </symbol>
  <symbol viewBox="0 0 80 80" fill="none" xmlns="http://www.w3.org/2000/svg" id="web-cont-manag-system">
    <g clip-path="url(#clip0)" fill="#919191">
      <path d="M37 35H16.6a.7.7 0 110-1.3h20.2a.7.7 0 010 1.3zm-24.8 0H8.7a.7.7 0 010-1.3h3.5a.7.7 0 010 1.3z"/>
      <path d="M14.5 37.3a2.9 2.9 0 110-5.8 2.9 2.9 0 010 5.8zm0-4.4a1.6 1.6 0 101.5 1.5 1.6 1.6 0 00-1.5-1.6zM36.9 44H25.1a.7.7 0 110-1.3h11.8a.7.7 0 010 1.3zm-16.3 0H8.7a.7.7 0 110-1.3h11.9a.7.7 0 110 1.3z"/>
      <path d="M22.8 46.3a2.9 2.9 0 110-5.8 2.9 2.9 0 010 5.8zm0-4.4a1.6 1.6 0 101.6 1.5 1.6 1.6 0 00-1.6-1.5zm14.1 11.3H16.7a.7.7 0 110-1.3h20.2a.7.7 0 010 1.3zm-24.7 0H8.7a.7.7 0 010-1.3h3.5a.7.7 0 110 1.3z"/>
      <path d="M14.5 55.4a2.9 2.9 0 112.9-2.9 2.9 2.9 0 01-3 3zm0-4.5a1.6 1.6 0 100 3.2 1.6 1.6 0 000-3.2zm22.4 11.3h-6.8a.7.7 0 010-1.3H37a.7.7 0 110 1.3zm-11.3 0H8.7a.7.7 0 010-1.3h17a.7.7 0 110 1.3z"/>
      <path d="M27.9 64.5a2.9 2.9 0 110-5.8 2.9 2.9 0 010 5.8zm0-4.5a1.6 1.6 0 101.4 1 1.6 1.6 0 00-1.4-1z"/>
      <path d="M79.3 74H.7a.7.7 0 01-.7-.7V7.7A.7.7 0 01.7 7h78.6a.7.7 0 01.7.7v65.6a.7.7 0 01-.7.6zm-78-1.4h77.4V8.3H1.3v64.3z"/>
      <path d="M79.3 21.6H.7a.7.7 0 110-1.3h78.6a.7.7 0 110 1.3zM8.6 17.1a2.9 2.9 0 112.9-3 2.9 2.9 0 01-2.9 3zm0-4.5a1.6 1.6 0 100 3.1 1.6 1.6 0 000-3.1zm9.7 4.5a2.9 2.9 0 113-3 2.9 2.9 0 01-3 3zm0-4.5a1.6 1.6 0 101.6 1.6 1.6 1.6 0 00-1.6-1.6zm61 2.2H35.6a.7.7 0 010-1.3h43.7a.7.7 0 010 1.3zM58 58.3a10.5 10.5 0 1110.5-10.5 10.5 10.5 0 01-10.5 10.5zm0-19.7a9.2 9.2 0 109.2 9.2 9.2 9.2 0 00-9.2-9.2z"/>
      <path d="M60.4 39h-.1a9 9 0 00-4.8 0 .7.7 0 01-.6-.1.7.7 0 01-.2-.6V34a.7.7 0 01.6-.7h5.1a.7.7 0 01.7.7v4.3a.6.6 0 01-.7.7zM56 34.6v2.9a10.9 10.9 0 013.8 0v-2.9H56zM67.4 46a.7.7 0 01-.3 0 .7.7 0 01-.4-.5 9.7 9.7 0 00-.9-2.2 9.3 9.3 0 00-1.4-1.9.7.7 0 01-.2-.6.6.6 0 01.3-.4l3.7-2.2a.7.7 0 011 .2l2.5 4.5a.7.7 0 010 .5.7.7 0 01-.3.4l-3.6 2.1a.6.6 0 01-.4.1zM65.9 41a10.5 10.5 0 011.9 3.3l2.4-1.4-1.9-3.3L66 41zm2.7 16.6a.7.7 0 01-.4-.1l-3.7-2.2a.7.7 0 01-.3-.5.7.7 0 01.2-.5 9.2 9.2 0 002.3-4.1.7.7 0 01.4-.5.6.6 0 01.6 0l3.7 2.2a.6.6 0 01.3.9L69 57.2a.7.7 0 01-.5.4zm-2.7-3l2.4 1.4 2-3.3-2.5-1.4c-.3.6-.5 1.2-.9 1.7a9.9 9.9 0 01-1 1.6zm-5.5 7.7h-5a.7.7 0 01-.7-.7v-4.3a.7.7 0 01.2-.5.7.7 0 01.6-.1 9.5 9.5 0 004.8 0 .7.7 0 01.5 0 .7.7 0 01.3.6v4.3a.7.7 0 01-.7.7zM56 60.9h3.8v-2.8a10.9 10.9 0 01-3.8 0V61zm-8.8-3.3a.6.6 0 01-.6-.4l-2.5-4.4a.6.6 0 01.2-.9l3.8-2.1a.6.6 0 01.6 0 .7.7 0 01.3.4 9 9 0 001 2.2 9.2 9.2 0 001.4 2 .6.6 0 01.2.5.7.7 0 01-.3.5l-3.8 2a.6.6 0 01-.3.2zm-1.6-4.9l1.9 3.3 2.4-1.4a10 10 0 01-1-1.6 10.6 10.6 0 01-.9-1.7l-2.4 1.4zm2.8-6.8a.6.6 0 01-.3 0l-3.8-2.2a.7.7 0 01-.3-.4.7.7 0 010-.5l2.6-4.5a.7.7 0 011-.2l3.7 2.2a.6.6 0 01.3.4.6.6 0 01-.2.6 8.7 8.7 0 00-1.4 2 9 9 0 00-1 2.1.7.7 0 01-.3.5.8.8 0 01-.3 0zm-2.8-3l2.4 1.4.8-1.7A9.8 9.8 0 0150 41l-2.4-1.4-2 3.3zm12.3 10.5a5.6 5.6 0 110-11.2 5.6 5.6 0 010 11.2zm0-9.9a4.3 4.3 0 104.2 4.3 4.3 4.3 0 00-4.2-4.3z"/>
    </g>
    <defs>
      <clipPath id="clip0">
        <path fill="#fff" d="M0 7h80v67H0z"/>
      </clipPath>
    </defs>
  </symbol>
  <symbol viewBox="0 0 80 80" fill="none" xmlns="http://www.w3.org/2000/svg" id="web-e-commerce">
    <g clip-path="url(#clip0)" fill="#919191">
      <path d="M79.3 70.5H.7A.7.7 0 010 70V10.7a.7.7 0 01.7-.7h78.6a.7.7 0 01.7.7v59.2a.7.7 0 01-.7.6zm-78-1.3h77.4V11.3H1.3v58z"/>
      <path d="M79.3 24.6H.7a.7.7 0 110-1.3h78.6a.7.7 0 110 1.3zm-63.2-7H7.4a.7.7 0 01-.7-.7.6.6 0 01.7-.6H16a.7.7 0 010 1.3zm55.4 46.8h-63a.7.7 0 010-1.3h63a.7.7 0 010 1.3zM48.3 51.7H32.7a.7.7 0 01-.6-.5l-4.7-13.6-1.3-4h-7a.7.7 0 010-1.4h7.6a.6.6 0 01.6.5l1.2 4H53a.7.7 0 01.6.9L49 51.2a.7.7 0 01-.6.5zM33 50.3h14.7L52 38.2H29L33 50.3zm1.6 8.1a2.7 2.7 0 110-5.3 2.7 2.7 0 010 5.3zm0-4a1.4 1.4 0 101.4 1.3 1.4 1.4 0 00-1.4-1.3zm11.6 4a2.7 2.7 0 110-5.3 2.7 2.7 0 010 5.3zm0-4a1.4 1.4 0 101.3 1.3 1.4 1.4 0 00-1.3-1.3z"/>
    </g>
    <defs>
      <clipPath id="clip0">
        <path fill="#fff" d="M0 10h80v60.5H0z"/>
      </clipPath>
    </defs>
  </symbol>
  <symbol viewBox="0 0 80 80" fill="none" xmlns="http://www.w3.org/2000/svg" id="web-portals">
    <path d="M40 62.6A22.6 22.6 0 1162.6 40 22.6 22.6 0 0140 62.6zm0-43.9A21.2 21.2 0 1061.2 40 21.3 21.3 0 0040 18.7z" fill="#919191"/>
    <path d="M40 62.6c-5.7 0-10.1-10-10.1-22.6s4.4-22.6 10-22.6 10.2 10 10.2 22.6c0 12.7-4.4 22.6-10.1 22.6zm0-43.9c-4.8 0-8.8 9.8-8.8 21.3s4 21.2 8.8 21.2 8.8-9.7 8.8-21.2-4-21.3-8.8-21.3z" fill="#919191"/>
    <path d="M62 40.7H18a.7.7 0 010-1.4h44a.7.7 0 010 1.4zm-22-22a.7.7 0 01-.7-.6V7a.7.7 0 111.3 0v11a.7.7 0 01-.6.6z" fill="#919191"/>
    <path d="M40 7.8a3.9 3.9 0 113.9-4 3.9 3.9 0 01-4 4zm0-6.5a2.6 2.6 0 100 5.2 2.6 2.6 0 000-5.2zm15.5 23.9a.7.7 0 01-.5-.2.7.7 0 010-1l7.8-7.7a.7.7 0 11.9.9l-7.8 7.7a.7.7 0 01-.4.3z" fill="#919191"/>
    <path d="M65.5 18.4a3.9 3.9 0 01-2.7-6.7 4 4 0 015.5 0 3.9 3.9 0 01-2.8 6.7zm0-6.5a2.6 2.6 0 00-1.8 4.4 2.6 2.6 0 003.6 0 2.6 2.6 0 00-.8-4.2 2.5 2.5 0 00-1-.2zM73 40.7h-11a.7.7 0 010-1.4h11a.7.7 0 010 1.4z" fill="#919191"/>
    <path d="M76.1 43.9a3.9 3.9 0 110-7.8 3.9 3.9 0 010 7.8zm0-6.5a2.6 2.6 0 102.6 2.6 2.6 2.6 0 00-2.6-2.6zM63.2 64a.7.7 0 01-.4-.2L55 56a.7.7 0 011-1l7.7 7.8a.6.6 0 010 .9.7.7 0 01-.5.2z" fill="#919191"/>
    <path d="M65.5 69.4a3.9 3.9 0 01-2.7-6.6 4 4 0 015.5 0 3.9 3.9 0 01-2.8 6.6zm0-6.4a2.6 2.6 0 00-1.8.7 2.6 2.6 0 000 3.6 2.6 2.6 0 003.6 0 2.6 2.6 0 000-3.6 2.5 2.5 0 00-1.8-.7zM40 73.5a.7.7 0 01-.7-.6v-11a.7.7 0 111.3 0v11a.7.7 0 01-.6.6z" fill="#919191"/>
    <path d="M40 80a3.9 3.9 0 113.9-3.9 3.9 3.9 0 01-4 4zm0-6.5a2.6 2.6 0 102.6 2.6 2.6 2.6 0 00-2.6-2.6zM16.8 64a.7.7 0 01-.7-.6.6.6 0 01.2-.5L24 55a.7.7 0 111 1l-7.8 7.7a.7.7 0 01-.4.2z" fill="#919191"/>
    <path d="M14.5 69.4a3.9 3.9 0 01-2.8-6.6 4 4 0 015.5 0 3.9 3.9 0 01-2.7 6.6zm0-6.4a2.6 2.6 0 00-2.4 3.5l.5.9a2.6 2.6 0 003.7 0 2.6 2.6 0 000-3.7 2.5 2.5 0 00-1.8-.7zM18 40.7H7a.7.7 0 010-1.4h11a.7.7 0 010 1.4z" fill="#919191"/>
    <path d="M3.9 43.9a3.9 3.9 0 110-7.8 3.9 3.9 0 010 7.8zm0-6.5A2.6 2.6 0 106.5 40a2.6 2.6 0 00-2.6-2.6zm20.6-12.2a.7.7 0 01-.5-.2l-7.7-7.8a.7.7 0 011-1L25 24a.7.7 0 010 1 .7.7 0 01-.5.2z" fill="#919191"/>
    <path d="M14.5 18.4a3.9 3.9 0 01-2.8-1.2 3.9 3.9 0 010-5.5 4 4 0 015.5 0 3.9 3.9 0 01-2.7 6.6zm0-6.5a2.6 2.6 0 00-1.9 4.4 2.6 2.6 0 003.7 0 2.6 2.6 0 00-1.8-4.4zM40 28.3a38.3 38.3 0 01-16.2-3.6.7.7 0 01.5-1.2 37 37 0 0015.6 3.4 37 37 0 0015.7-3.4.7.7 0 01.6 1.2A38.2 38.2 0 0140 28.3zm16 28.3a.6.6 0 01-.3 0 37.5 37.5 0 00-31.4 0 .7.7 0 11-.6-1.2 38.8 38.8 0 0132.5 0 .6.6 0 01.3.9.7.7 0 01-.5.3z" fill="#919191"/>
  </symbol>
  <symbol viewBox="0 0 80 80" fill="none" xmlns="http://www.w3.org/2000/svg" id="websites">
    <g clip-path="url(#clip0)" fill="#919191">
      <path d="M79.3 73.2H.7a.7.7 0 01-.7-.7V6.7A.7.7 0 01.7 6h78.6a.7.7 0 01.7.7v65.8a.7.7 0 01-.7.7zm-78-1.3h77.4V7.3H1.3V72z"/>
      <path d="M79.3 22.7H.7a.7.7 0 110-1.3h78.6a.7.7 0 110 1.3zM43.1 33H9.7a.7.7 0 110-1.4h33.4a.7.7 0 110 1.4zm-6.4 19.8h-27a.7.7 0 010-1.3h27a.7.7 0 010 1.3zm-17-10H9.5a.7.7 0 010-1.2h10.4a.7.7 0 010 1.3zm23.8 0h-15a.7.7 0 010-1.2h15a.7.7 0 010 1.3zm0 19.9H33a.7.7 0 110-1.3h10.5a.7.7 0 010 1.3zm-19.2 0h-15a.7.7 0 110-1.3h15a.7.7 0 010 1.3zM11.4 17.5a3.1 3.1 0 110-6.3 3.1 3.1 0 010 6.3zm0-5a1.8 1.8 0 101.9 1.8 1.8 1.8 0 00-1.9-1.8zm16.8 5a3.1 3.1 0 113.1-3.2 3.2 3.2 0 01-3.1 3.2zm0-5a1.8 1.8 0 101.8 1.8 1.8 1.8 0 00-1.8-1.8zm16.7 5a3.1 3.1 0 110-6.3 3.1 3.1 0 010 6.3zm0-5a1.8 1.8 0 101.8 1.8 1.8 1.8 0 00-1.8-1.8zm17 47.6a.7.7 0 01-.5-.2l-12.8-17a.7.7 0 010-.7l4.9-7.5a.7.7 0 01.5-.3H70a.7.7 0 01.5.3l4.9 7.5a.6.6 0 010 .7L62.4 60a.6.6 0 01-.5.2zM50 42.5l12 15.9 12-15.9-4.4-6.8H54.3L50 42.5z"/>
      <path d="M74.8 43.2H49a.7.7 0 010-1.3h25.7a.7.7 0 010 1.3z"/>
      <path d="M62 60.1a.7.7 0 01-.7-.4l-6.8-17a.6.6 0 010-.4l2.9-7.5a.7.7 0 011.2.5l-2.8 7.2 6.7 16.7a.7.7 0 01-.6 1z"/>
      <path d="M62 60.1a.7.7 0 01-.3 0 .7.7 0 01-.4-.8l6.8-16.7-2.8-7.3a.7.7 0 011.2-.5l2.9 7.5a.7.7 0 010 .5l-6.9 17a.6.6 0 01-.6.3z"/>
      <path d="M62 60.1a.7.7 0 01-.7-.6V35a.7.7 0 011.3 0v24.4a.7.7 0 01-.7.6z"/>
    </g>
    <defs>
      <clipPath id="clip0">
        <path fill="#fff" d="M0 6h80v67.2H0z"/>
      </clipPath>
    </defs>
  </symbol>
</svg>
