<svg width="0" height="0" class="hidden">
  <symbol xmlns="http://www.w3.org/2000/svg" id="tech-1" fill="none" viewBox="0 0 108 108">
    <path fill="#002163" d="M46.2 83.3l-.3.8c-.2 1-.7 1.8-1.3 2.4-.7.8-2 1.2-3.7 1.2-1.3 0-2.4-.3-3.2-1-.9-.5-1.8-1.6-2.7-3.2l-.6-.9-4 2.5-4 2.4.3.6a14 14 0 008.7 7.6C39.7 97 44 97 48 95.4c4.6-1.9 7.2-5.6 7.9-11.2l.1-18.7V47.7h-10v35.6zm22-32.1a12.4 12.4 0 00-3.7 9.1A14 14 0 0072 73c1.2.7 3.3 1.7 6.2 3 3.6 1.5 5.8 2.7 6.7 3.7 1.5 1.5 1.8 3.2 1 5a6 6 0 01-1 1.2 7.3 7.3 0 01-5.4 2c-3.9 0-7-1.8-9.3-5.3l-.6-.9a119.7 119.7 0 00-8 4.7s.1.4.5.9c3 5.2 7.7 8.2 14.3 9 2.1.4 4.3.4 6.4 0 4-.5 7.3-1.9 9.6-4.1 2.5-2.4 3.7-5.6 3.7-9.6a14.3 14.3 0 00-3.7-9.8c-2-2-5.5-4-10.5-6.2a21.4 21.4 0 01-6.4-3.4c-.9-1-1.3-2.1-1.2-3.4.1-1 .5-1.9 1-2.6 1-1 2.3-1.4 4-1.4 1.7 0 3.2.6 4.3 1.8.6.5 1 1 1.4 1.6l.5.7a135.1 135.1 0 007.7-5l-.8-1.3a14.8 14.8 0 00-11.6-6.4 20.6 20.6 0 00-3.3 0c-3.8.2-7 1.6-9.4 4zm39.8 49.2a7.6 7.6 0 01-7.6 7.6H7.6a7.6 7.6 0 01-7.6-7.6V7.6A7.6 7.6 0 017.6 0h92.8a7.6 7.6 0 017.6 7.6v92.8z" opacity=".7"/>
  </symbol>
  <symbol xmlns="http://www.w3.org/2000/svg" id="tech-2" fill="none" viewBox="0 0 108 108">
    <path fill="#002163" d="M100.4 0H7.6A7.6 7.6 0 000 7.6v92.8a7.6 7.6 0 007.6 7.6h92.8a7.6 7.6 0 007.6-7.6V7.6a7.6 7.6 0 00-7.6-7.6zM88.1 70.3c0 2.3-1 4-3 5.1L57 91.7a6 6 0 01-3 .8 6 6 0 01-3-.8L41.6 86c-1-.5-1-1-.2-1.2a22.5 22.5 0 004.2-2c.2-.1.5 0 .7.1l7.3 4.2a.8.8 0 00.8 0L82.5 71c.3-.1.5-.4.5-.7V37.8c0-.4-.2-.7-.5-.8l-28-16.3a.8.8 0 00-1 0L25.5 37c-.3.1-.5.4-.5.8v32.5c0 .3.2.6.5.7l7.7 4.5c2.1.9 3.7 1 5 .3a3.4 3.4 0 001.8-3.1V40.5c0-.5.2-.8.8-.8h3.6c.5 0 .8.3.8.8v32.2a9 9 0 01-2.2 6.4 8.2 8.2 0 01-6.2 2.3c-1.9 0-4-.6-6.5-1.8l-7.4-4.2c-2-1.1-2.9-2.8-2.9-5.1V37.8c0-2.3 1-4 3-5.2L51 16.4c2-1.1 4-1.1 6 0L85 32.6c2 1.2 3 2.9 3 5.2v32.5zM70.6 58.9c-.3-.4-1.3-.8-2.8-1.3-1.5-.4-3.7-.7-6.6-1-4.3-.4-7.4-1.3-9.5-2.5s-3-3.3-3-6.2c0-2.8 1.1-5 3.4-6.6a16 16 0 019.4-2.5c4.5 0 8 .8 10.3 2.5 2.3 1.6 3.5 4 3.8 7.4a.6.6 0 01-.2.6.8.8 0 01-.6.3H71c-.4 0-.7-.2-.8-.6-.4-2-1.3-3.3-2.6-4-1.2-.8-3.3-1.2-6.2-1.2-4.8 0-7.2 1.3-7.2 4 0 .7.2 1.3.6 1.6a7 7 0 002.6 1c1.3.4 3.5.7 6.4 1.1 4.6.7 8 1.6 9.9 2.8 2 1.2 3 3.2 3 6 0 3.1-1.3 5.5-3.8 7.2a18 18 0 01-10.3 2.6c-3 0-5.5-.3-7.6-1a10 10 0 01-4.5-2.5c-1-1-1.8-2.2-2.2-3.3a9.8 9.8 0 01-.7-3.6c0-.6.3-.8 1-.8h3.5c.5 0 .8.2.8.6.3 2 1.1 3.4 2.4 4.3 1.3 1 3.7 1.4 7.3 1.4 2.9 0 5-.4 6.4-1.2 1.4-.7 2-1.8 2-3.4 0-.7-.1-1.2-.5-1.7z" opacity=".7"/>
  </symbol>
  <symbol xmlns="http://www.w3.org/2000/svg" id="tech-3" fill="none" viewBox="0 0 108 108">
    <path fill="#002163" d="M100.4 0H7.6A7.6 7.6 0 000 7.6v92.8a7.6 7.6 0 007.6 7.6h92.8a7.6 7.6 0 007.6-7.6V7.6a7.6 7.6 0 00-7.6-7.6zm-14 88.1c-.3 0-.5-.3-.8-.6l-.7-.6a229.5 229.5 0 00-2.8-2.3l-2.7-1.4a25 25 0 01-5.4-3.6 9.4 9.4 0 01-2.7-3.6l-.4-.8c0-.3.2-.5.3-.7l.9-.3.6-.2c2.2-1 5-1.4 8.6-1.3 0-.3-.3-.6-.6-1a9 9 0 00-1.5-1l-1-.7c-2.3-1.8-3.7-2.8-4.4-3.2l-1.6-.8a36.3 36.3 0 01-1.4-.5 37.8 37.8 0 00-3.4-1.3c-.5-.2-.9-.5-1-.8a38 38 0 01-3.2-6.3l-1.5-3.4a107.2 107.2 0 01-1.5-3.5l-.6-1.6L59 47a40.5 40.5 0 00-13.7-16.1 25.3 25.3 0 00-6.4-3.2c-.4-.2-1.2-.3-2.2-.4l-2.2-.2h-.8a5 5 0 01-1.3-.9l-.9-.7c-1-.8-2.5-1.6-4.2-2.4-1.5-.6-2.4-.8-2.8-.4a.8.8 0 00-.7.6c-.2.4-.1 1 .2 2l.7 1.2a331 331 0 001.7 2.4c1.2 1.8 2 3 2.3 3.7l1.3 4.1 1.3 4a21.4 21.4 0 001.7 3.1l.7.8c.5.5.8 1 .8 1.3.2.2.3.5.2 1.1a12.1 12.1 0 01-.3 1.5 20 20 0 01-.5 1.5 34.3 34.3 0 00-.4 1 21 21 0 00-.7 6.5A20 20 0 0034 64l.2.4a6.4 6.4 0 00.3.9l.3.3c0 .2.1.3.2.3l.3.3c0 .2.2.3.3.3l.3.2.4.2.2-.2a36.8 36.8 0 00.4-3.8l.3-1.6a12.8 12.8 0 01.5-1.7l1-1.8 1.1-1.4.3.4.2.7.2.6 1.9 4.5c1.6 3.4 3.3 6.2 4.9 8.7a35.1 35.1 0 002.3 2.8l.5.4.5.5h.1v.2a7 7 0 01-1.9-1.5l-1.3-1.3c-2.5-2.1-4.4-4.2-5.7-6.4l-1.8-4a.6.6 0 00-.2.4v.4a3.8 3.8 0 000 .5c-.2.4-.3 1.2-.4 2.2-.2 1.1-.3 2-.6 2.5-.2.6-.6 1-1.2 1.2-1.6.7-3.1-.2-4.6-2.7a23.2 23.2 0 01-1.3-15.9c0-.1 0-.6.3-1.6.2-1 .4-1.6.7-2a1.5 1.5 0 00-.3-.6 5.4 5.4 0 00-.4-.5 3.2 3.2 0 01-.4-.5c-.5-.7-1-1.6-1.6-2.9a94 94 0 01-2.7-7.5 47.6 47.6 0 00-.3-1.3 35.2 35.2 0 00-3-4.5 22.6 22.6 0 01-.7-1.1 14 14 0 01-.8-1.3l-.6-1.4a19 19 0 01-.2-1.4c-.1-.6 0-1.1.2-1.5a3.6 3.6 0 014-2.5 19.5 19.5 0 017 3l.8.8 1 .8 3.4.2a22 22 0 015.6 2c3.9 2.4 7.2 5 9.8 7.6a50.6 50.6 0 018 11.7 119.1 119.1 0 011.5 3.7 123 123 0 005.4 11.9c.1.2.4.3 1 .5l.7.4a133.3 133.3 0 004.6 2.4 64.4 64.4 0 018.4 7.2l1 1.3v.5a43 43 0 01-4.3 1c-1 .1-1.7.2-2.2.4-1.5.4-2.5.7-3 .7l.1.2c.2.5.6 1 1.2 1.5l2.2 1.5 1.7 1.1c1.8 1.5 3.4 3 4.6 4.8l1.3 1.4.3.7.4.8v.1zm-50-53.8c0 1.1-.2 1.9-.8 2.3l-.1.2a49.4 49.4 0 01-1-2.3l-.7-.8c-.4-.4-.5-.8-.7-1.1H33v-.1a8.5 8.5 0 011.8-.2l.5.4.7.7.2.4c0 .3.2.4.3.5z" opacity=".7"/>
  </symbol>
  <symbol xmlns="http://www.w3.org/2000/svg" id="tech-4" fill="none" viewBox="0 0 108 108">
    <path fill="#002163" d="M100.4 0H7.6A7.6 7.6 0 000 7.6v92.8a7.6 7.6 0 007.6 7.6h92.8a7.6 7.6 0 007.6-7.6V7.6a7.6 7.6 0 00-7.6-7.6zm-21 25l4 3-.7 1.2-3.5-1.9.2-2.2zm-11.8-3.4l.5 3.2h-5l-.7-3.4 5.2.2zm-15.4 1.7l2.9 3.2L51 29l-3-3.5 4.2-2zM38.5 33.8l4.2 2.8-3.3 4-4.3-3 3.4-3.8zm-11 16l5.7 2.3-1.8 4.7-5.6-1.7 1.7-5.2zm-6.8 26.6l.8-6 6.3.4-1 6.4-6.1-.8zm41-23.7l-1 4-4-3.5 1.5-3.2 3.5 2.7zm-1.1-10.5l2.5-2.3 2.4 3.6-1.4 2.6-3.5-4zm.5 21.4l.3 4-5.1-2.2.3-4.3 4.5 2.5zm2.3 12.7l2.2 4.8-6.4-.4-1.2-4.4h5.4zM69.7 39l-1.5-2.9 3.4-.9.5 2-2.4 1.8zM82 36.7l-3.4-.4v-1.8l3.4.7v1.5zm3.9-.6a9 9 0 00-1.2-1.2c-.6-.4-1.8-1-3.6-1.6a13 13 0 00-5.6-.6 18 18 0 00-5.8 1.8A23.4 23.4 0 0058 45.6c-1.5 3-2.5 6.2-3 9.7a49.2 49.2 0 000 9 62.2 62.2 0 001.2 8.5 78.5 78.5 0 003.5 12l.8 1.8H27.9A78.7 78.7 0 0133 58c1.6-3.9 3.8-8.5 6.6-13.8 3-5.2 6.5-9.6 10.8-13a28 28 0 0115.2-5.8 20.7 20.7 0 016.9.4c2.3.5 4.4 1.2 6 2.1a69.4 69.4 0 014.7 2.7l3.2 2.4 1 1L86 36z" opacity=".7"/>
  </symbol>
  <symbol xmlns="http://www.w3.org/2000/svg" id="tech-5" fill="none" viewBox="0 0 108 108">
    <path fill="#002163" d="M100.4 0H7.6A7.6 7.6 0 000 7.6v92.8a7.6 7.6 0 007.6 7.6h92.8a7.6 7.6 0 007.6-7.6V7.6a7.6 7.6 0 00-7.6-7.6zm-24 57.4c2.2-.3 4.4.3 6 1.7 1.4 1.2 2.1 3 1.8 4.8-.3 2-1.7 3.8-3.2 5.1a25.4 25.4 0 01-9.8 4.5c.2-.3.4-.5.7-.6 2.6-1.4 5.2-3.1 7.2-5.4 1.2-1.5 2-3.3 1.7-5.2-.4-2.2-2.5-3.8-4.7-4-1 0-2 .3-3 .5.8-1 2.1-1.2 3.4-1.4zM61.8 37.2A9.8 9.8 0 0059 41a5 5 0 00.3 3.4c.8 2 2.2 3.5 3.3 5.3 1 1.5 1 3.4.4 5-1 2.4-3.2 4.1-5.3 5.5-.3.2-.5.5-.9.5a7 7 0 002.5-5.1c0-1.5-.8-2.8-1.8-3.9-2-2.3-3.6-5.3-3.3-8.5.4-3.2 2.6-5.7 5.1-7.6 3.9-2.8 8.4-4.6 13-6-3.6 2.4-7.4 4.5-10.6 7.5zm-18.2 3.7c.6-1.8 1.9-3.2 3.2-4.6 3.6-3.6 8-6.3 11.6-10 2-2 3.6-4.4 4.1-7.2.5-2 .3-4.1-.1-6.1a9.4 9.4 0 012 8 18 18 0 01-4.4 8.1 39.9 39.9 0 01-5.4 5.2 22.5 22.5 0 00-6 6.3 8.3 8.3 0 00-.6 6.9c1.4 3.9 4.5 6.7 6.2 10.4a83.2 83.2 0 01-5.5-5.2c-1.8-2-3.5-4-4.6-6.4a7.6 7.6 0 01-.5-5.4zm-13 21.2c.6-.7 1.5-1 2.4-1.4C36.5 59 40.5 58 44.6 58c-2.4.7-4.8 1.3-7 2.3-.5.3-1 .6-1.4 1.1-.2.4.3.7.6.8 1.4.6 2.9.7 4.3.8a157.7 157.7 0 0030.4-2c-1.1.6-2.2 1-3.2 1.7A92.6 92.6 0 0132.7 64c-.8-.2-1.6-.4-2.2-1-.3-.2-.3-.7 0-1zm11.9 15.7c.5.7 1.5.8 2.3 1 3.4.4 6.8.7 10.2.4 2.5-.1 5-.6 7.6-1l4.4 2.2a39.4 39.4 0 01-20.4 2.4c-1.9-.4-3.8-.8-5.6-1.8-.6-.3-1.3-.8-1.6-1.5-.2-.6.1-1.2.6-1.6 1-.7 2-1.1 3.2-1.4-.4.3-1 .7-.7 1.3zm13-3.9c-4 .3-8.3.3-12.4-.4-1.6-.3-3.2-.6-4.7-1.4-.6-.3-1.3-.7-1.5-1.4 0-.6.3-1.2.8-1.5a12 12 0 013.5-1.7c-.4.5-1 1-1 1.6 0 .4.3.7.7 1 .6.3 1.4.4 2.1.5a68 68 0 0022.2-1c1 .9 2 1.5 3.3 2-4.3 1.3-8.6 2-13 2.3zM24 88c-.5-.7 0-1.5.5-2a19.8 19.8 0 0110.1-3.6c.8 0 1.6.1 2.3.5-2.4.2-4.7.7-6.8 1.8-.4.3-1 .6-1.1 1.1 0 .6.7.8 1.1 1 3 1.1 6 1.4 9 1.8 9.1.7 18.2.5 27.3-.3 3.4-.4 6.9-.8 10.2-1.7 1-.4 2.2-.7 3-1.7.4-.5 0-1.2-.3-1.7.6.4 1.6.9 1.5 1.8-.3 1-1.3 1.4-2 1.9-2.6 1.3-5.5 2-8.3 2.5-8.1 1.6-16.4 2-24.7 1.8-6.3-.3-12.5-.9-18.6-2-1.1-.2-2.4-.4-3.2-1.3zM81.1 91c-2.9 1.5-6 2.2-9.2 2.7a116 116 0 01-34 0c-1.1-.4-2.3-.6-3.2-1.2a131 131 0 0032.4.2c3.9-.5 7.8-1.2 11.5-2.4 2-.7 4.2-1.4 5.7-3-.2 1.7-1.7 3-3.2 3.7z" opacity=".7"/>
  </symbol>
  <symbol xmlns="http://www.w3.org/2000/svg" id="tech-6" fill="none" viewBox="0 0 108 108">
    <path fill="#002163" d="M100.4 0H7.6A7.6 7.6 0 000 7.6v92.8a7.6 7.6 0 007.6 7.6h92.8a7.6 7.6 0 007.6-7.6V7.6a7.6 7.6 0 00-7.6-7.6zm-71 31.2H22v45.6h7.4v7H13.3V24.2h16.1v7zm42.7 9.6c-3.4-2-7.2-3-11.5-3-4.7 0-8.4 1.5-11.3 4.5-3 3-4.4 7-4.4 12 0 4.8 1.4 8.6 4.1 11.5 2.7 2.9 6.4 4.3 11 4.3 4.4 0 8.4-1 12-3.2v10.3a33 33 0 01-14.2 2.7A24 24 0 0139.7 73 24.7 24.7 0 0133 55c0-8 2.5-14.5 7.4-19.5a26 26 0 0119.2-7.4c5 0 9 .6 12.4 1.8v10.8zm22.6 43H78.6v-7H86V31.2h-7.4v-7h16.1v59.6z" opacity=".7"/>
  </symbol>
  <symbol xmlns="http://www.w3.org/2000/svg" id="tech-7" fill="none" viewBox="0 0 108 108">
    <path fill="#002163" d="M100.4 0H7.6A7.6 7.6 0 000 7.6v92.8a7.6 7.6 0 007.6 7.6h92.8a7.6 7.6 0 007.6-7.6V7.6a7.6 7.6 0 00-7.6-7.6zM83.6 81s-3.1-5.2-8.4-5.2c-5 0-8 5.2-18.2 5.2-22.6 0-33.3-18.9-33.3-18.9 20.4 13.5 34.3 4 34.3 4-9.2-5.4-28.7-30.9-28.7-30.9 17 14.5 24.3 18.3 24.3 18.3C49.2 50 37 32.2 37 32.2 46.8 42.2 66.4 56 66.4 56 71.9 40.7 61 27 61 27c26.7 18 18 38 18 38s7.6 8.5 4.6 16z" opacity=".7"/>
  </symbol>
  <symbol xmlns="http://www.w3.org/2000/svg" id="tech-8" fill="none" viewBox="0 0 108 108">
    <path fill="#002163" fill-rule="evenodd" d="M7 0a7 7 0 00-7 7v94a7 7 0 007 7h94a7 7 0 007-7V7a7 7 0 00-7-7H7zm19.9 32l6.3-.4c2-.2 3.2-.2 3.5 0l.7.8a2305.6 2305.6 0 0116.2 26.9l19.8-4.8c.2 0-.4-.9-3.2-4.8l-3.4-5c-.1-.3 0-.5.5-.7.6-.3 10.3-1.8 10.7-1.8l.8.4c.6.6 8.3 10.2 8.4 10.5 0 .2 0 .3-.3.4l-4.8 1.4c-2.5.6-4.6 1.2-4.6 1.3a252 252 0 008.2 11.1c.3.6.2.9-.6 1.2l-21.5 7.8c-1.5.4-2.4.6-2.8.3-.9-.4-1.9-2-7.4-12-1-1.9-1.2-2.1-1.4-2l-7 1.7c-7.6 2-8 2-8.8 1.6-.5-.3-1-.8-1.3-1.4a3797.8 3797.8 0 01-14-30.8c0-.5 0-.6.2-.8l.2-.2c.2-.2.7-.2 5.6-.6zm23.8 27.7c0-.2-14.4-25-15.1-26-.2-.3-.3-.4-.5-.4-1.7 0-11 1-11.1 1 0 .1 1.6 3.7 3.7 8a10632 10632 0 017 14.2C37 61.7 37.8 63 38 63a693.8 693.8 0 0012.7-3.3zm29.7-12.6a174.1 174.1 0 00-1.8-2.3c-.7-.8-.8-.8-1.7-.6a204.1 204.1 0 01-7 1.4c0 .2 3.5 5.2 5.8 8.4l8.2-2.1c.1-.1-.3-.7-2.3-3.3l-1.2-1.5zm1.8 19a179.7 179.7 0 00-7.2-9.5c-.3 0-19.8 5-20 5.2l2.5 4.3c4 7 4.2 7.2 4.6 7.2l1.5-.4 2.3-.8 7.6-2.6 8.7-3v-.3z" clip-rule="evenodd" opacity=".7"/>
  </symbol>
  <symbol xmlns="http://www.w3.org/2000/svg" id="tech-9" fill="none" viewBox="0 0 108 108">
    <path fill="#002163" fill-rule="evenodd" d="M7 0a7 7 0 00-7 7v94a7 7 0 007 7h94a7 7 0 007-7V7a7 7 0 00-7-7H7zm57.8 25.4c3.5-4.2 8.3-7.2 13.8-7.4 5.5-.2 9.6 2.3 9.8 6.2 0 1.7-1 5-4.3 5-2.5.1-4.2-1.3-4.3-3.6 0-.9.2-1.6.8-2.4l.2-.5c.4-.7.4-.8.4-1.2 0-1.4-2.2-1.5-2.8-1.5-8 .3-10.2 11.2-12 20.1l-.8 4.7c4.7.7 8-.1 9.8-1.3 1.6-1 1-2.1.4-3.2-.4-.7-.8-1.4-.7-2.2.5-2 2.2-2.9 3.7-3 2 0 3.4 2 3.3 4.2 0 3.4-4.6 8.2-13.8 8a32.4 32.4 0 01-3-.3l-1.8 9.6v.2c-1.6 7.2-3.7 17-11 25.5-6.3 7.5-12.7 8.6-15.5 8.7-5.4.2-9-2.7-9.1-6.5-.1-3.7 3.1-5.7 5.3-5.8 2.9 0 4.8 2 5 4.4 0 2-1 2.7-1.8 3l-.2.2c-.4.3-1 .7-1 1.4.1.4.5 1.2 1.7 1.2 2.2-.1 3.7-1.2 4.7-2h.1c5.2-4.3 7.2-12 9.9-25.7l.5-3.4v-.1c1-4.5 2-9.4 3.4-14.4l-3-2.6a18 18 0 00-7.8-5c-3.4-.9-5.5 0-7 1.7a5 5 0 00.6 6.7l2.7 3c3.4 4 5.3 7 4.6 11-1.1 6.6-8.9 11.6-18 8.8-8-2.4-9.4-8-8.4-11 .8-2.7 3-3.2 5-2.6 2.3.7 3.1 3.4 2.5 5.5a7.9 7.9 0 01-.4 1.1 5.5 5.5 0 01-.4.7l-.6 1c-.5 1.7 1.8 2.9 3.3 3.4 3.5 1 7-.8 7.8-3.6.8-2.6-.8-4.5-1.5-5.2l-3.3-3.5C30 51 26.7 46.3 28.4 41c.6-2 1.9-4.2 3.8-5.7 4-3 8.5-3.5 12.7-2.3 4 1.2 6.6 3.5 9 5.8l2.4 2.2c1.9-5.6 4.5-11 8.5-15.6z" clip-rule="evenodd" opacity=".7"/>
  </symbol>
  <symbol xmlns="http://www.w3.org/2000/svg" id="tech-10" fill="none" viewBox="0 0 108 108">
    <path fill="#002163" fill-rule="evenodd" d="M7 0a7 7 0 00-7 7v94a7 7 0 007 7h94a7 7 0 007-7V7a7 7 0 00-7-7H7zm34 46.5a111.6 111.6 0 014.5-7.2 111.5 111.5 0 0117 0 111.6 111.6 0 014.6 7.2 111.6 111.6 0 014 7.6 111.6 111.6 0 01-4 7.5 111.7 111.7 0 01-4.6 7.3 111.8 111.8 0 01-8.5.3c-3 0-5.8-.1-8.5-.3a111.8 111.8 0 01-4.6-7.3 111.8 111.8 0 01-4-7.5 111.7 111.7 0 014-7.6zm-2.6-1.4a115.7 115.7 0 013.3-5.5c-3.5.4-6.8 1-9.8 1.7a88.8 88.8 0 003.4 9.3 115.6 115.6 0 013-5.5zM54 36l-6.3.1a88.8 88.8 0 016.3-7.7 88.8 88.8 0 016.3 7.7L54 36zm-10.2.4c2.7-3.8 5.4-7.2 8.2-10a57.4 57.4 0 00-4.2-3.8 28.6 28.6 0 00-8.7-5.2c-2.6-.8-4.6-.7-6.1.2-1.5.8-2.6 2.5-3.2 5.2-.6 2.6-.5 6 .1 10.1l1.2 5.5c3.9-1 8.2-1.6 12.7-2zm20.4 0a94.1 94.1 0 00-8.2-10 57.6 57.6 0 014.2-3.8c3.2-2.6 6.1-4.4 8.7-5.2 2.6-.8 4.6-.7 6.1.1 1.5 1 2.6 2.6 3.2 5.3.6 2.6.5 6-.1 10.1a57.5 57.5 0 01-1.2 5.5c-3.9-1-8.2-1.6-12.7-2zm16.1.4a66.6 66.6 0 01-.5 2.3 60.3 60.3 0 015.5 1.8c4 1.5 7.4 3.4 9.8 5.5 2.4 2.2 3.9 4.7 3.9 7.6 0 2.8-1.5 5.4-4 7.5-2.3 2.2-5.7 4-9.7 5.6a60.3 60.3 0 01-5.5 1.8 60 60 0 011.2 5.6c.7 4.3.8 8.2 0 11.3-.6 3.1-2 5.7-4.5 7.1-2.5 1.5-5.4 1.4-8.5.4-3-1-6.3-3-9.7-5.7A60.3 60.3 0 0154 84a60.5 60.5 0 01-4.3 3.8 31.5 31.5 0 01-9.7 5.7c-3 1-6 1-8.5-.4s-4-4-4.6-7.1c-.6-3.1-.6-7 .1-11.3a60.3 60.3 0 011.2-5.6 60.3 60.3 0 01-5.5-1.8c-4-1.6-7.4-3.4-9.8-5.6C10.5 59.5 9 57 9 54.1c0-2.9 1.5-5.4 4-7.6 2.3-2.1 5.7-4 9.7-5.5a60.3 60.3 0 015.5-1.8 60.3 60.3 0 01-1.2-5.7c-.7-4.2-.8-8.1 0-11.2.6-3.2 2-5.8 4.5-7.2 2.5-1.4 5.4-1.4 8.5-.4 3 1 6.3 3 9.7 5.7a60.4 60.4 0 014.3 3.9 60.4 60.4 0 014.3-3.9c3.4-2.7 6.7-4.7 9.7-5.7 3-1 6-1 8.5.4s4 4 4.6 7.2c.6 3.1.6 7-.1 11.2l-.7 3.4zm-14 2.7c3.5.4 6.8 1 9.8 1.7a88.8 88.8 0 01-3.4 9.3 115.9 115.9 0 00-6.4-11zM79 42a94 94 0 01-4.7 12A94 94 0 0179 66.2a57.3 57.3 0 005.3-1.7c3.8-1.4 6.8-3.1 8.8-5 2-1.8 3-3.6 3-5.3 0-1.8-1-3.6-3-5.4-2-1.8-5-3.5-8.8-5A57.4 57.4 0 0079 42zm-9.4 21.1a115.7 115.7 0 003-5.6c1.5 3.2 2.6 6.4 3.5 9.4a88.9 88.9 0 01-9.8 1.6 115.7 115.7 0 003.3-5.4zm-5.4 8.6c4.5-.4 8.8-1.1 12.7-2a57.4 57.4 0 011.2 5.4c.6 4 .7 7.5.1 10.2-.6 2.6-1.7 4.3-3.2 5.2-1.5.9-3.5 1-6 .1-2.7-.8-5.6-2.5-8.8-5.1a57.5 57.5 0 01-4.2-3.8c2.8-2.9 5.5-6.3 8.2-10zm-3.9.3a88.8 88.8 0 01-6.3 7.6 88.8 88.8 0 01-6.3-7.6 116.6 116.6 0 0012.6 0zm-22-8.9a115.9 115.9 0 003.4 5.4 88.9 88.9 0 01-9.8-1.6 88.8 88.8 0 013.4-9.4 115.6 115.6 0 003 5.6zm5.5 8.6c-4.5-.4-8.8-1.1-12.7-2a57.5 57.5 0 00-1.2 5.4c-.6 4-.7 7.5-.1 10.2.6 2.6 1.7 4.3 3.2 5.2 1.5.9 3.5 1 6 .1 2.7-.8 5.7-2.5 8.8-5.1a57.5 57.5 0 004.2-3.8c-2.8-2.9-5.5-6.3-8.2-10zm-20-7.3a57.3 57.3 0 005.2 1.7c1.2-3.8 2.7-7.9 4.7-12-2-4.2-3.5-8.2-4.7-12a57.4 57.4 0 00-5.3 1.6 28.6 28.6 0 00-8.8 5c-2 1.8-3 3.6-3 5.4 0 1.7 1 3.5 3 5.3 2 1.9 5 3.6 8.8 5zm23.4-10.3a6.8 6.8 0 1113.6 0 6.8 6.8 0 01-13.6 0zm6.8-9.8a9.8 9.8 0 100 19.5 9.8 9.8 0 000-19.5z" clip-rule="evenodd" opacity=".7"/>
  </symbol>
  <symbol xmlns="http://www.w3.org/2000/svg" id="tech-11" fill="none" viewBox="0 0 108 108">
    <g fill="#002163" opacity=".7">
      <path d="M38.8 57c-1 .4-1.9 1-2.2 2.1a4 4 0 00.6 3.5c.7.9 2 1.1 3 1 1.7-.2 3-1 4.2-2v-5c-1.8 0-3.8-.2-5.6.4zm45-.5c-2 0-3.9 0-5.7.6-1 .3-1.8 1-2.1 2-.3 1.1-.2 2.5.5 3.5s2 1.1 3.2 1c1.5-.2 3-1 4.1-2.1v-5z"/>
      <path d="M100.4 0H7.6A7.6 7.6 0 000 7.6v92.8a7.6 7.6 0 007.6 7.6h92.8a7.6 7.6 0 007.6-7.6V7.6a7.6 7.6 0 00-7.6-7.6zM29 62.6c0 2.3 0 4.7-1.2 6.7A11 11 0 0122 74L20 71.5c1.9-1 3.8-2.7 4.2-5 .4-2.1.3-4.4.3-6.6v-22H29v24.7zm19.7 3.8h-3.4c0-.8-.2-1.5-.3-2.3-1.2 1-2.6 2-4.2 2.4-1.8.5-3.8.4-5.6-.3a4.9 4.9 0 01-2.8-3.2c-.6-2-.3-4.5 1.2-6.2a8.9 8.9 0 015.3-2.7c1.8-.3 3.7-.3 5.5-.3 0-1.4.3-3-.6-4.2-.6-1-1.8-1.4-2.9-1.4-2.4-.2-4.8.4-7 1.1l-.6-2.6c3-1.3 6.3-2 9.6-1.7 1.7.2 3.5.9 4.6 2.2 1 1.2 1.2 2.7 1.2 4.2v15zm14.4 0h-5.4l-6.4-21H56l2.7 8.8c.5 1.8 1.2 3.6 1.6 5.4l.6 2.5c2-5.4 3.4-11 4.2-16.8h4.6a85.5 85.5 0 01-6.6 21zm25 0h-3.4l-.3-2.3a10 10 0 01-5.6 2.6c-2 .2-4.2 0-5.7-1.4-1.6-1.5-1.8-3.9-1.4-6a6.3 6.3 0 013.5-4.2c2.6-1.3 5.7-1.3 8.6-1.3 0-1.4.2-2.8-.5-4-.5-1-1.7-1.5-2.8-1.6a17 17 0 00-7.3 1.1l-.6-2.6c3-1.3 6.4-2 9.7-1.7 1.7.3 3.4.9 4.5 2.2 1 1.2 1.3 2.8 1.3 4.4v14.8z"/>
    </g>
  </symbol>
  <symbol xmlns="http://www.w3.org/2000/svg" id="tech-12" fill="none" viewBox="0 0 108 108">
    <g fill="#002163" opacity=".7">
      <path d="M63.3 57.1l-.9 9.8-8.5 2.3-8.4-2.3-.6-6h-7.5l1 12 15.5 4.3h.2l15.4-4.3 2.2-23.5H44l-.7-7.8h29l.7-7.5H35l2 23h26.3z"/>
      <path d="M100.4 0H7.6A7.6 7.6 0 000 7.6v92.8a7.6 7.6 0 007.6 7.6h92.8a7.6 7.6 0 007.6-7.6V7.6a7.6 7.6 0 00-7.6-7.6zM78.8 83.4l-24.9 7-24.7-7-5.5-62h60.6l-5.5 62z"/>
    </g>
  </symbol>
  <symbol xmlns="http://www.w3.org/2000/svg" id="tech-13" fill="none" viewBox="0 0 108 108">
    <g fill="#002163" opacity=".7">
      <path d="M54 41.2h1.3l-1.2.5-17.8 7.6.7 7.6h26.3l-.8 10-8.4 2.3H54l-8.5-2.3-.5-6h-7.6l1 11.9L54 77l15.6-4.3 2-23.5H54.1l18.2-8 .7-7.7H35l.6 7.6h18.5z"/>
      <path d="M100.4 0H7.6A7.6 7.6 0 000 7.6v92.8a7.6 7.6 0 007.6 7.6h92.8a7.6 7.6 0 007.6-7.6V7.6a7.6 7.6 0 00-7.6-7.6zM78.8 83.3L54 90.2l-24.8-6.9-5.5-61.9h60.6l-5.5 62z"/>
    </g>
  </symbol>
  <symbol xmlns="http://www.w3.org/2000/svg" id="tech-14" fill="none" viewBox="0 0 108 108">
    <g fill="#002163" opacity=".7">
      <path d="M62.3 80.7c.7 0 1.4-.2 1.9-.8.5-.5.7-1.2.7-2 0-.7-.2-1.4-.7-1.9a2.5 2.5 0 00-1.9-.8c-.7 0-1.3.3-1.8.8s-.8 1.2-.8 2c0 .7.3 1.4.8 2a2.5 2.5 0 001.8.7z"/>
      <path d="M100.4 0H7.6A7.6 7.6 0 000 7.6v92.8a7.6 7.6 0 007.6 7.6h92.8a7.6 7.6 0 007.6-7.6V7.6a7.6 7.6 0 00-7.6-7.6zM38 58.9c-.3.8-.4 1.6-.5 2.2v8.5h-5.6l-1.2-.2a7.1 7.1 0 01-1.7-.8 11.8 11.8 0 01-3.5-4.4c-.5-1.1-1-2.5-1.2-4.3a34.2 34.2 0 01.7-14.4c.4-1 .8-2 1.3-2.7.5-.8 1-1.4 1.6-1.9a20 20 0 011.6-1.1c.6-.4 1-.6 1.6-.7a108 108 0 002.2-.3H54v-2.2H39.4v-7.2-.8a6 6 0 012.7-3.8c.8-.6 2.3-1.1 4.3-1.6s4.5-.8 7.3-.8c2.3 0 4.2.2 6 .5 1.7.3 3 .7 4 1.2s2 1 2.7 1.6c.7.6 1.2 1.2 1.5 1.8a14.5 14.5 0 01.6 1.7c.1.5.2.9.1 1.2v14.4c0 1.5-.2 2.9-.8 4-.6 1.2-1.3 2-2 2.6-.9.5-1.7.9-2.5 1.1-.8.3-1.5.5-2 .5H45.9a9 9 0 00-4.2 1c-1.2.6-2 1.4-2.6 2.3a13.9 13.9 0 00-1.2 2.6zM83.8 60a12.7 12.7 0 01-3.3 6.8c-.8.8-1.5 1.3-2.2 1.6a14 14 0 01-1.9.6c-.6.2-1 .2-1.4.2H54v2.2h14.6v8c0 .3-.2.8-.6 1.6a6 6 0 01-2 2.2c-1 .6-2.4 1.1-4.4 1.6a33.3 33.3 0 01-13.3.3 17 17 0 01-4-1.2c-1-.5-2-1-2.7-1.6a5.2 5.2 0 01-1.5-1.8 14 14 0 01-.6-1.7c-.1-.4-.2-.9-.1-1.2V63.2c0-1.5.2-2.9.8-4 .6-1.2 1.2-2 2-2.6a13.3 13.3 0 012.5-1.1l2-.6h15.4a9 9 0 004.2-.9c1.2-.6 2-1.4 2.6-2.3a13.8 13.8 0 001.7-4.8v-8.5h5.6l1.2.2 1.7.8a8 8 0 011.8 1.7 11 11 0 011.7 2.7A32 32 0 0183.8 60z"/>
      <path d="M45.7 27.3c-.7 0-1.4.2-1.9.8-.5.5-.7 1.2-.7 2 0 .7.2 1.4.7 1.9a2.5 2.5 0 001.9.8c.7 0 1.3-.3 1.8-.8s.8-1.2.8-2c0-.7-.3-1.4-.8-2a2.5 2.5 0 00-1.8-.7z"/>
    </g>
  </symbol>
  <symbol xmlns="http://www.w3.org/2000/svg" id="tech-15" fill="none" viewBox="0 0 108 108">
    <path fill="#002163" fill-rule="evenodd" d="M0 7a7 7 0 017-7h94a7 7 0 017 7v94a7 7 0 01-7 7H7a7 7 0 01-7-7V7zm38 57.5l-10-10L60.5 22h20L38 64.5zM60.5 52h20L63 69.5l-10-10 7.5-7.5zM53 79.5l7.5 7.5h20L63 69.5l-10 10zm-10-10l10-10 10 10-10 10-10-10z" clip-rule="evenodd" opacity=".7"/>
  </symbol>
  <symbol xmlns="http://www.w3.org/2000/svg" id="tech-16" fill="none" viewBox="0 0 108 108">
    <path fill="#002163" fill-rule="evenodd" d="M7 0a7 7 0 00-7 7v94a7 7 0 007 7h94a7 7 0 007-7V7a7 7 0 00-7-7H7zm17.4 65.7c-4.5-9-5.2-20 .7-28.4l4.5-5.8a30 30 0 004 31.5l.3.4.1.2.2.1c0 .2.2.3.3.4l.3.4.1.1.1.2a53.3 53.3 0 00.9 1l.9.9.3.3.4.4a16.9 16.9 0 011 1 42.7 42.7 0 00.5.4l.2.1a30.8 30.8 0 001 .8l.1.2.8.6.3.2.8.6.2.1.1.1.9.6.1.1.2.1.6.4.6.4a3 3 0 00.3.1l1 .5.2.2.3.1c.2 0 .3.2.5.3l.3.1.3.1.2.1.1.1.7.3h.1a69.5 69.5 0 00.7.4l.6.2.3.1.6.3a24.8 24.8 0 01.7.2l1.2.4h.1l.3.1 1.3.4c11.6 2.7 24 .3 30.8-8.7 0 0-8.2 22.2-36.6 17l-1.2-.3h-.1a1.4 1.4 0 01-.2 0 1.7 1.7 0 00-.1-.1 31 31 0 01-1.3-.4.3.3 0 01-.1 0l-1.2-.5a4.2 4.2 0 01-.1 0 4 4 0 00-.2-.1 14.7 14.7 0 01-1.3-.6 15.8 15.8 0 01-1.1-.5 4.6 4.6 0 00-.2 0 2.4 2.4 0 010-.1h-.2a1.9 1.9 0 010-.1l-.3-.1a6.4 6.4 0 00-.4-.2l-.5-.3-.9-.5a5 5 0 00-.2-.1 4.6 4.6 0 01-.1 0l-1.2-.8a2 2 0 00-.2-.2h-.2l-.8-.6a2.5 2.5 0 01-.3-.3l-.4-.2-.4-.3a4.5 4.5 0 00-.2-.2l-.2-.1a20.8 20.8 0 00-.3-.3 20.9 20.9 0 01-.7-.6l-.5-.3-.4-.4a.6.6 0 00-.2-.1l-1-.9a1.7 1.7 0 010-.1 1.8 1.8 0 00-.2-.2l-.7-.6v-.1L31 75l-.2-.3a17.8 17.8 0 01-.6-.6l-.3-.4-.6-.7a1.4 1.4 0 01-.1-.1 1.4 1.4 0 00-.1-.1 18.3 18.3 0 01-.3-.4l-.3-.4-.3-.3-.7-.9a1.2 1.2 0 010-.1h-.1a45 45 0 00-.2-.4l-.5-.7a7.7 7.7 0 00-.1-.2 7.7 7.7 0 01-.1-.1l-.5-.8-.3-.4-.4-.7a9.3 9.3 0 01-.1-.2L25 67a2.3 2.3 0 00-.1-.2l-.2-.3a2.6 2.6 0 010-.2 6.4 6.4 0 00-.3-.4l-.1-.2zm18.9-35.5c-4.3 6-4 14.3-.7 20.7a26.7 26.7 0 001.9 3.1l.2.4c.6.8 1.2 1.7 2 2.4l.9 1 .2.2a20 20 0 001 1l1.2.9.1.1a1.9 1.9 0 00.2.1l1.1.9c.2 0 .3.1.3.2l.3.1.3.2a19.6 19.6 0 001 .6l.7.5h.2a5 5 0 00.4.3l.3.1.8.4.4.2h.2l1 .5h.2l.1.1a20 20 0 001.3.4l.4.1.8.3c22 3.6 27-13.3 27-13.3-4.5 6.6-13.3 9.7-22.8 7.3a29 29 0 01-1.2-.4h-.4l-.3-.2a7 7 0 01-.5-.2 4.8 4.8 0 01-.2 0 4.7 4.7 0 00-.2-.2l-1-.3a1.4 1.4 0 00-.1 0 19.2 19.2 0 01-1.3-.7 7.6 7.6 0 01-.5-.3 2.5 2.5 0 00-.4-.1 8 8 0 01-.5-.3 21.4 21.4 0 00-.2-.2.4.4 0 01-.2 0 19.6 19.6 0 01-.8-.6h-.2l-.1-.2-.6-.3-.8-.6a24.6 24.6 0 00-.3-.3 1.4 1.4 0 00-.2-.2h-.1a26.4 26.4 0 01-9-12.8 19.7 19.7 0 011.6-15.9l-3.5 5zm14.3 7c-1.8-4.1-1.5-8.7 1-12.3l2-2.6c-3.6 6.2-.3 14 5 18a17 17 0 003 1.8l1.7.7h.4l1 .4c6 1.4 10.8.5 13.7-3.7a9 9 0 00-.4.6c-1.3 2.3-5 9-15.9 6.9a8.7 8.7 0 01-.8-.2 1.2 1.2 0 00-.2-.1l-.3-.1a14.8 14.8 0 00-.2-.1c-4.4-1.6-8.2-5-10-9.3z" clip-rule="evenodd" opacity=".7"/>
  </symbol>
  <symbol xmlns="http://www.w3.org/2000/svg" id="tech-17" fill="none" viewBox="0 0 108 108">
    <g fill="#002163" opacity=".7">
      <path d="M78.6 50.7h-4l-1.7 9.6h3.9c1.7-.1 3-.7 4-1.6 1-1 1.6-2.6 1.7-5.1 0-2-1.3-2.9-3.9-2.9z"/>
      <path d="M100.4 0H7.6A7.6 7.6 0 000 7.6v92.8a7.6 7.6 0 007.6 7.6h92.8a7.6 7.6 0 007.6-7.6V7.6a7.6 7.6 0 00-7.6-7.6zM42 62.1c-2.4 2.3-5 3.3-8 3.1h-5.8l-1.3 6.9h-6.1l5.1-26.3h12c5.2.4 7.7 2.8 7.7 7.4 0 3.8-1.2 6.7-3.6 9zm15.3 3.1l2.3-12c.2-.9.2-1.5 0-2s-.9-.5-2-.5h-4.8l-2.9 14.5h-6.1L48.9 39H55l-1.2 6.8h5.8c2.5.2 4.2.9 5.3 2 1 1.1 1.4 2.5 1.1 4.2l-2.2 13.2h-6.5zm28-3c-2.3 2.2-5 3.2-8 3h-5.8l-1.2 6.9H64l5.2-26.3h12c5.1.4 7.7 2.8 7.7 7.4 0 3.8-1.2 6.7-3.6 9z"/>
      <path d="M35.3 50.7h-4.1l-1.7 9.6h4c1.7-.1 3-.7 4-1.6 1-1 1.6-2.6 1.7-5.1 0-2-1.3-2.9-4-2.9z"/>
    </g>
  </symbol>
  <symbol xmlns="http://www.w3.org/2000/svg" id="tech-18" fill="none" viewBox="0 0 108 108">
    <path fill="#002163" fill-rule="evenodd" d="M7 0a7 7 0 00-7 7v94a7 7 0 007 7h94a7 7 0 007-7V7a7 7 0 00-7-7H7zm17 56.2A30 30 0 0054 84a30 30 0 0029.8-33.4c-.3-2.3-1-4.5-1.6-6.7v-.2c-.5-1.4-1.7-2-3-1.5-1.4.4-1.8 1.5-1.5 2.9l.1.7.4 1A25.1 25.1 0 0156 79.2a23.9 23.9 0 01-24-12.7c-5-9-4.5-18 1.2-26.6a24.8 24.8 0 0128.9-9.7c1.5.5 3 .6 3.7-1.2.6-1.4-.3-2.6-2.3-3.3A30 30 0 0024 56.2zm30-15.7c-8 .1-13.3 5.7-13.5 13.5 0 7.6 6.1 13.6 13.6 13.6 7.4 0 13.5-6.3 13.4-13.8 0-7.3-6.1-13.4-13.5-13.3zm25.6-6a6 6 0 00-6-6 6 6 0 00-6.2 6 6 6 0 005.9 6 6 6 0 006.3-6z" clip-rule="evenodd" opacity=".7"/>
  </symbol>
  <symbol xmlns="http://www.w3.org/2000/svg" id="tech-19" fill="none" viewBox="0 0 108 108">
    <path fill="#002163" fill-opacity=".7" fill-rule="evenodd" d="M7 0a7 7 0 00-7 7v94a7 7 0 007 7h94a7 7 0 007-7V7a7 7 0 00-7-7H7zm81.2 68.8c.3-11.3-7.5-20-17.1-25-.2 0-.3 0-.4-.2h-.2c.3.6.5 1.1.5 1.6l-.7 1.5a6 6 0 01-9.6.6c-2.8-3.6-1.7-7.5-.5-11.4.5-1.7 1-3.5 1.1-5.2.8-7-3.6-13.8-9.1-18 3 5-.9 11.4-4.1 15-2 2.2-4.2 4.1-6.4 6L38 37.4c-3.7 3.3-7.2 7-10.1 11-6 8-9.8 18-7 28 2.6 10 11.3 16.4 21 18.6-4.9-2.1-9.5-7.5-9.5-13.1 0-6 3.8-11.1 8.5-14.5-.5 2.2-.8 4.1.6 6a5.6 5.6 0 005.8 2.2c5-1 5.3-6.7 2.3-10-3-3.2-5.9-6.8-4.7-11.5.6-2.3 2-4.5 3.8-6.1-1.4 3.8 2.6 7.3 5.2 9.2l5 3c3 2 6 3.8 8.8 6.1 4.3 4 7.7 9.1 7 15.3-.7 6.5-6 11-11.9 13.4 12.5-2.7 25.2-12.4 25.5-26zM71 45.2v-.5-.7 1.2z" clip-rule="evenodd"/>
  </symbol>
  <symbol xmlns="http://www.w3.org/2000/svg" id="tech-20" fill="none" viewBox="0 0 108 108">
    <path fill="#002163" fill-rule="evenodd" d="M7 0a7 7 0 00-7 7v94a7 7 0 007 7h94a7 7 0 007-7V7a7 7 0 00-7-7H7zm74.2 28a34.6 34.6 0 004-7c4.8 14.3 7.6 26.5 6.6 36a37.8 37.8 0 01-37.5 35A37.6 37.6 0 0130 83.1L28.7 82A37.7 37.7 0 0117 54.6C17 34 34 17 54.6 17a37.6 37.6 0 0126.6 11zM31.5 83.3a3.2 3.2 0 002.5-1.2 3.2 3.2 0 00-.5-4.5 3.2 3.2 0 00-2-.7 3.2 3.2 0 000 6.4zm21-3.6c11.6.4 25.3.8 32.5-8.8 9.5-12.6 4.2-33-.2-46A34.1 34.1 0 0163 41.3c-3.4.8-6.6 1-9.8 1.1-4 .2-8 .4-12 2C24.7 50.7 25 70.3 34 74.7l.6.3s13.3-2.7 20.6-5.4a45.8 45.8 0 0026.4-25 43.6 43.6 0 01-22.4 28.3c-3.4 1.7-6.3 2.6-10.2 3.8-2.3.7-5 1.5-8.3 2.7l-2 .8a51 51 0 014.5-.5c2.8-.2 6 0 9.2 0z" clip-rule="evenodd" opacity=".7"/>
  </symbol>
  <symbol xmlns="http://www.w3.org/2000/svg" id="tech-21" fill="none" viewBox="0 0 108 108">
    <path fill="#002163" fill-rule="evenodd" d="M7 0a7 7 0 00-7 7v94a7 7 0 007 7h94a7 7 0 007-7V7a7 7 0 00-7-7H7zm18.6 87.6V19.8h35c3.2.3 6 .8 8.2 1.5a14 14 0 0110 11.3c.7 3.9.4 8-1 10.8a15.3 15.3 0 01-6.8 6.8l-1 .5 1.2.4c7.3 2.6 11.2 8.5 11.2 17 0 4.7-1.3 8.5-4.1 12a22.2 22.2 0 01-12.6 6.8l-1.7.3c-2 .4-4.3.4-20.4.4h-18zm38.8-51.2c-1.2-3.2-3.7-4.7-8.6-5H40.5v15.8h8.7c7.5 0 8.6 0 9.3-.2 2.8-.7 4.6-2 5.5-3.9.6-1.2.7-1.8.7-4 0-1.8 0-2-.3-2.7zM67 63.7c-.8-3.2-3-5-7-6a58 58 0 00-10.3-.3h-9.3V76h9.1c8.8-.1 9.2-.1 10.3-.3 4.5-.9 6.9-3 7.5-6.8.2-1.3 0-4-.3-5.3z" clip-rule="evenodd" opacity=".7"/>
  </symbol>
  <symbol xmlns="http://www.w3.org/2000/svg" id="tech-22" fill="none" viewBox="0 0 108 108">
    <path fill="#002163" fill-rule="evenodd" d="M7 0a7 7 0 00-7 7v94a7 7 0 007 7h94a7 7 0 007-7V7a7 7 0 00-7-7H7zm53.3 53.9L54 39 47.7 54h12.6zm22 20.4L87.1 30 54 18 20.8 29.9l5 44.4 28.2 16 28.2-16zM54 24.3l21.2 46.5h-8l-4-10.7-9.2-.2-9.2.2-4 10.7h-8L54 24.4z" clip-rule="evenodd" opacity=".7"/>
  </symbol>
  <symbol xmlns="http://www.w3.org/2000/svg" id="tech-23" fill="none" viewBox="0 0 108 108">
    <path fill="#002163" fill-rule="evenodd" d="M7 0a7 7 0 00-7 7v94a7 7 0 007 7h94a7 7 0 007-7V7a7 7 0 00-7-7H7zm60 19.7l1.7-.3c7.2 0 11.2 1.5 15 4.5 1 .8 2.4 2 2.9 3.2 1 2.5.5 7-.1 9.5-1.5 6.8-3.8 13-6.9 18.3l-.7 1.4c-.5 1-1 2-1.6 2.6v.2c-.3-.2.2-1.7.6-3.1l.6-2.3c.3-1.8 0-3.4-.3-5s-.5-3-.2-4.7l.1-1c.5-2.1 1-5 .6-7a23.9 23.9 0 00-11.1-14.5L65.3 20h-.2l2-.4zm-12 .5l-1.8.1-2.1.6-1.5.5c-5.5 2.3-8.7 9-9 16.3 1.2-.6 2.6-1.3 4-1.7 7.4-2 8.4 2.7 9.3 8.3.4 2.1.5 5.1 0 7.2-.5 1.7-1.2 3.3-1.8 4.8L50.4 61c.8-.1 1.5.1 2 .3 2.7 1 2.7 3.6 2.7 7V72.3C55 79 54.9 87 59.9 88.5c1.8.5 3.8 0 5.2-.5 5.5-1.7 6-7.1 6.6-13.1l.6-5.7c.2-.8.2-1.7.2-2.5 0-1.5.1-3 .7-3.9.4-.7 1-1 1.6-1.4a9 9 0 001-.5l-.3-.5-.2-.3c-3-4.5-6-9.4-7.7-15-2.2-7.2 1.6-10.1 8.7-9.7C73 27.1 66.6 20.2 55 20.2zm-23.2.3c.6 0 1.2 0 1.8-.2 2.9 0 5.3.6 7.5 1.2l3.3.7c-4 5.3-4.8 8-6 16l.1 7.9-.2 2-.2 2.2c-.8 4.7 1.6 7.4 3.5 9.7l.3.3a5651.8 5651.8 0 00-6.2 7l-.2.2c-.5.6-1.3 1.4-2.6 1-2.6-.5-4.7-5.2-5.7-7.7v-.2c-3.2-7.3-9-24.6-5-34 1.4-3 4.2-5 7.7-5.8l2-.3zm48 43.5l-1.5-.6-1.5-.5-.3.2c-1.2.6-1.8.9-1.7 3 3.5 1.7 10.3-.7 12-2.6l-1.9.2c-1.6.3-3.3.6-5 .3zm-29-.9c2.9.1 2.2 3.2.9 4.4-2.8 2.3-6 2.6-10 1.3v-.2l1.4-.4c1.5-.3 3.2-.7 4.3-1.4l3.4-3.7zM76.2 41c0-1.2.2-2.3.3-3.4-2.8-.1-5.6-.2-6.8 1.5-.8 1.2-.5 4 0 5.4a46 46 0 004.6 9.7l.6 1.2.5 1.2h.2l.3-1.4c.4-1.4.7-3 .5-4.8a919.4 919.4 0 01-.4-4l-.2-2.1.4-3.4zm-3.7.5c-1-.3-1.4-.5-2-1.1 0-.4.1-.5.3-.6v-.2l.4-.1c.3-.2.7-.4 1.6-.4.8.1 1.1.2 1.5.8-.4.7-.7 1-1.3 1.3l-.5.3zm-25.9-3.7c1.3 0 2.5.1 3.2.6 2 1.5 2.7 9.4 1.9 12.8a24 24 0 01-2.1 5.4 830.6 830.6 0 00-1.3 4c-4.6-.1-7.3-3.5-8-7.5-.4-1.8 0-3.8.3-5.7V40.3l2.9-1.6 1.5-.4 1.6-.5zm-.8 2.5c.1 2 3.2 2.8 4 1V41v-.4c-.8-.6-1.6-1-3.1-.9a82.3 82.3 0 01-.8.5v.1z" clip-rule="evenodd" opacity=".7"/>
  </symbol>
  <symbol xmlns="http://www.w3.org/2000/svg" id="tech-24" fill="none" viewBox="0 0 108 108">
    <path fill="#002163" fill-rule="evenodd" d="M7 0a7 7 0 00-7 7v94a7 7 0 007 7h94a7 7 0 007-7V7a7 7 0 00-7-7H7zm48.7 84.2c0-1 .4-1.8 1-2.5 1.8-1.5 4.7-5 5.2-11a38.3 38.3 0 0022.9-9.2V74c-.1 8-13.9 14.4-30.8 14.4s-30.6-6.4-30.8-14.4V61.4c4.5 4.7 12.8 8.1 23 9.3a15.9 15.9 0 005.3 11h.2l.1-.5c.3-.9.6-1.7.6-2.2v-8a63.9 63.9 0 001.6.1h.6v8c0 .2-.2 2-.8 3.5a6 6 0 00-.4 2.2v1.4h2.3v-2zM23.2 34c0-7.8 13.6-14 30.2-14s30 6.3 30 14.1c-.1 7.8-13.6 14-30.3 14-16.5 0-29.8-6.3-29.9-14V34zm0 20.2V41.4C29 47.2 40.2 51 54 51s25.2-3.9 30.8-9.7v12.7C84.7 60.8 75 66.4 61.9 68a20.5 20.5 0 00-7.1-14 20.6 20.6 0 01-.3-.3v14.8h-2.1V55c-2.1 2.3-5.8 7-6.3 13-13-1.7-22.8-7.3-22.9-14z" clip-rule="evenodd" opacity=".7"/>
  </symbol>
  <symbol xmlns="http://www.w3.org/2000/svg" id="tech-25" fill="none" viewBox="0 0 108 108">
    <path fill="#002163" fill-rule="evenodd" d="M7 0a7 7 0 00-7 7v94a7 7 0 007 7h94a7 7 0 007-7V7a7 7 0 00-7-7H7zm16.6 58.5v-8.9h38v8.9h-14v40h-10v-40h-14zm70-5.1a13 13 0 00-6.8-3.9c-1.9-.5-6.3-.7-8.2-.3-5.8 1-10 4.9-11 10.3-.5 1.5-.3 5.4 0 7 .6 1.8 1.8 4 3 5.4 2.3 2.3 4.6 3.8 10.2 6.2 4.9 2.2 6.6 3.2 7.5 4.4.6.9.8 1.5.8 2.7a4 4 0 01-1.4 3.3c-2.4 2-7 2.3-10.6.5-1.1-.6-3.1-2.5-4-4l-.7-.9-3 1.8-4.1 2.4-1 .6c-.2.2 1.8 3 2.8 4.2 2.5 2.8 6.6 5 11 5.8 2 .3 6.3.4 8.2 0 6-1 10.2-4 12-8.6 1.5-4.1 1-9.6-1.3-13.2-2-3.1-5.4-5.3-13.1-8.6-4.2-1.9-5.5-2.8-6.3-4.3-.3-.7-.5-1.2-.5-2 0-2.9 2.2-4.6 5.4-4.4 2.3.2 3.7 1 5.1 3 .5.8.9 1.2 1 1.2l7.5-5.1a17 17 0 00-2.6-3.5z" clip-rule="evenodd" opacity=".7"/>
  </symbol>
  <symbol xmlns="http://www.w3.org/2000/svg" id="tech-26" fill="none" viewBox="0 0 108 108">
    <path fill="#002163" fill-rule="evenodd" d="M0 7a7 7 0 017-7h94a7 7 0 017 7v94a7 7 0 01-7 7H7a7 7 0 01-7-7V7zm62 20.6l3.3-4.7c.2-.3.1-.6-.1-.8-.3-.2-.6-.1-.8.2L61 27.2a20 20 0 00-7.3-1.4c-2.6 0-5 .5-7.3 1.4l-3.4-5c-.2-.2-.5-.3-.8-.1-.2.2-.3.5 0 .8l3.2 4.7c-5.2 2.4-8.8 7-9.3 12.3h35.2c-.5-5.3-4-9.9-9.3-12.3zm-1 7.5a2 2 0 110-4 2 2 0 010 4zm-16.6-2a2 2 0 103.9 0 2 2 0 00-3.9 0zM30 66.1a4 4 0 004-4V46.4a4 4 0 00-7.9 0v15.9a4 4 0 004 3.9zm6.2-23.6v28.7a3 3 0 003 3h3.7v8.9a4 4 0 107.9 0v-8.8h6V83a4 4 0 107.9 0v-8.8h3.6a3 3 0 003.1-3.1V42.5H36.1zM77.5 66a4 4 0 01-4-4V46.4a4 4 0 118 0v15.9a4 4 0 01-4 3.9z" clip-rule="evenodd" opacity=".7"/>
  </symbol>
  <symbol xmlns="http://www.w3.org/2000/svg" id="tech-27" fill="none" viewBox="0 0 108 108">
    <path fill="#002163" fill-rule="evenodd" d="M7 0a7 7 0 00-7 7v94a7 7 0 007 7h94a7 7 0 007-7V7a7 7 0 00-7-7H7zm74.5 83.5A728920.9 728920.9 0 0140.2 78l27.3-17.7 14 23.3zM84 36.4l1.4-2.1h.2l-.1 2.3L83 83c-.8-1-1.4-2.1-2-3.2l-3-4.8A4874.2 4874.2 0 0069 60c-.3-.5-.1-.8 0-1a5.3 5.3 0 00.2-.2A38706.1 38706.1 0 0184 36.4zM31 55.3c-.1.1-.6 0-.8-.2a52.3 52.3 0 01-1.9-1.9l-.7-.7 1.3-2 3.5-5.1c.4-.7 1-1.4 1.6-2a601.7 601.7 0 017-6.4l1.3-1.2c1-1 2-2 3.2-2.8 2.4-1.5 5-2.8 7.4-4.2a374.5 374.5 0 002.8-1.5c.2-.2.5-.3.7-.2l3.4 1.2 1 .4-.8 1.7a928 928 0 01-2.9 5.8 2 2 0 01-.5.6h-.1a6854.5 6854.5 0 01-10.6 9.8l-.9 1c-.7.6-1.5 1.4-2.3 1.9l-9.5 4.8-2.1 1zm11 6.9L44.4 52l4 1.3A369628.7 369628.7 0 0066 58.9L38.6 76.6 42 62.2zm23-24.8l18-3-2.7 4-12.6 19-8-19.1 5.3-1zm.8 19.7l-21-6.8L58 38l3 7.2 4.8 11.8zM23.1 77.6l7.4-17.7L37.2 77l-14.1.5zM37.5 73h-.1l-2-5-4-10.5L38 54l4.6-2.3a2516 2516 0 01-3.4 14L37.5 73zm41-40.2l1.7.4v.2L72 34.6l-12.8 2a2.7 2.7 0 000-.2.5.5 0 010-.2l1.2-2.3a511.4 511.4 0 002.3-4.7c.2-.5.5-.4 1-.3l6 1.6 3.6 1 5.2 1.3zm7 .2L67 28v-.3l15.4-3.3.4 1.1 2.6 7.5zM34 79.2c1.6 0 3.3-.2 5 0L52.3 81l5.3.7 15 2v.3l-47-4.3a.8.8 0 01.6-.3h1.4l4.3-.2h2zm-8.6-11.8l-2 4.8a2 2 0 01-.2.3v.1H23l3.7-18.3.8.9a48.5 48.5 0 001.7 1.8c.4.3.5.7.3 1.1l-4 9.3zm45-42.4c-2.4.5-4.9 1-7.3 1.7-1.3.3-2.4-.1-3.8-.7L74 24v.2H74a7 7 0 01-.5.2l-3 .6z" clip-rule="evenodd" opacity=".7"/>
  </symbol>
  <symbol xmlns="http://www.w3.org/2000/svg" id="tech-28" fill="none" viewBox="0 0 108 108">
    <path fill="#002163" fill-rule="evenodd" d="M7 0a7 7 0 00-7 7v94a7 7 0 007 7h94a7 7 0 007-7V7a7 7 0 00-7-7H7zm61.6 63.7c8-8 15.2-16.7 15.8-26.8.2-8.2-3.7-14.2-8.2-16.5-7.5.3-16.6 9.7-13.5 18.5a72 72 0 015.9 24.8zM52 63.3c1.9-2.4 3.3-4.6 4.5-6.6 2.1.9 7.8 3.8 11 8.6-.5 7-5.7 19.5-22.4 21.4a31.8 31.8 0 016.8-23.4zm-13.2-14a21.2 21.2 0 01-16-22.8c13-5.1 26.8.1 34.8 11a53.7 53.7 0 019.9 26.2 31 31 0 00-15-10.2c-3.1-1.1-6-2-9.7-3l-4-1.2z" clip-rule="evenodd" opacity=".7"/>
  </symbol>
</svg>
