<svg width="494" height="375" viewBox="0 0 494 375" fill="none" xmlns="http://www.w3.org/2000/svg">
<path d="M300.017 315H230V361.678H300.017V315Z" fill="#C4C4C4"/>
<path d="M312.289 361.737H218V373.873H312.289V361.737Z" fill="#909090" stroke="#231F20" stroke-width="2" stroke-linejoin="round"/>
<path d="M101 374H429" stroke="#231F20" stroke-width="2" stroke-linejoin="round"/>
<path d="M486.551 106.473C485.768 103.011 484.277 99.748 482.172 96.8911L485.816 91.6096L483.61 89.3858L482.678 88.4701L480.537 86.2136L474.982 90.0562C472.012 88.1431 468.67 86.8834 465.177 86.3607L464.033 80H456.451L455.242 86.6878C451.779 87.419 448.514 88.8855 445.666 90.9882L440.372 87.3255L438.051 89.5493L437.12 90.465L434.914 92.6888L438.754 98.2483C436.846 101.222 435.588 104.565 435.061 108.059L428.705 109.22V116.791L435.339 118.001C436.104 121.473 437.584 124.748 439.686 127.616L436.058 132.864L438.264 135.072L439.195 136.004L441.418 138.228L446.957 134.369C449.926 136.287 453.268 137.552 456.762 138.081L457.905 144.425H465.488L466.697 137.754C470.158 137.009 473.422 135.538 476.273 133.437L481.583 137.116L483.789 134.892L484.721 133.96L486.927 131.753L483.087 126.193C484.998 123.222 486.257 119.877 486.78 116.382L493.12 115.221V107.634L486.551 106.473ZM460.929 127.55C457.903 127.55 454.946 126.653 452.431 124.971C449.916 123.289 447.955 120.899 446.798 118.102C445.64 115.306 445.337 112.228 445.928 109.259C446.518 106.29 447.974 103.563 450.113 101.423C452.252 99.2825 454.978 97.8248 457.945 97.2342C460.912 96.6437 463.987 96.9468 466.782 98.1052C469.576 99.2636 471.965 101.225 473.646 103.742C475.326 106.259 476.223 109.218 476.223 112.245C476.223 116.304 474.612 120.197 471.744 123.067C468.875 125.938 464.985 127.55 460.929 127.55Z" fill="#C4C4C4"/>
<path d="M151.043 48.4168C150.507 45.9768 149.466 43.6763 147.987 41.6636L150.569 37.9355L149.017 36.3821L148.363 35.728L146.729 34.0929L142.824 36.8072C140.725 35.4542 138.364 34.5625 135.895 34.191L135.078 29.727H129.751L128.885 34.4199C126.463 35.0001 124.191 36.0868 122.218 37.6085L118.492 35.0249L116.858 36.6601L116.205 37.3141L114.57 38.8675L117.283 42.7755C115.938 44.8775 115.053 47.2402 114.685 49.7086L110.208 50.5262V55.8731L114.881 56.7234C115.427 59.1651 116.467 61.469 117.937 63.4929L115.486 67.0412L117.12 68.6763L117.773 69.3304L119.407 70.9656L123.313 68.2512C125.411 69.6042 127.773 70.496 130.241 70.8674L130.846 75.2169H136.189L137.039 70.5241C139.523 70.0064 141.869 68.9639 143.918 67.4663L147.644 70.0499L149.278 68.4147L149.915 67.777L151.55 66.1419L148.837 62.2339C150.189 60.1341 151.08 57.771 151.452 55.3008L155.913 54.4832V49.2671L151.043 48.4168ZM133.068 63.264C130.937 63.2672 128.853 62.6376 127.079 61.4548C125.306 60.272 123.923 58.5892 123.106 56.6196C122.289 54.6499 122.074 52.4819 122.489 50.3901C122.904 48.2983 123.93 46.3768 125.437 44.8688C126.944 43.3608 128.865 42.3342 130.955 41.919C133.045 41.5037 135.212 41.7185 137.18 42.5361C139.149 43.3537 140.83 44.7374 142.012 46.5119C143.194 48.2865 143.824 50.3721 143.82 52.5047C143.82 53.9204 143.541 55.3222 142.999 56.6297C142.456 57.9372 141.661 59.1247 140.66 60.1243C139.658 61.1238 138.469 61.9156 137.16 62.4544C135.852 62.9932 134.45 63.2683 133.036 63.264H133.068Z" fill="#C4C4C4"/>
<path d="M439.555 89.7861H90.5169C86.9611 89.7861 84.0786 92.6705 84.0786 96.2286V315.323C84.0786 318.881 86.9611 321.765 90.5169 321.765H439.555C443.111 321.765 445.993 318.881 445.993 315.323V96.2286C445.993 92.6705 443.111 89.7861 439.555 89.7861Z" fill="#909090"/>
<path d="M132.087 183.543C132.087 196.507 128.243 209.179 121.041 219.957C113.839 230.736 103.602 239.137 91.6259 244.098C79.6494 249.059 66.4708 250.357 53.7566 247.828C41.0424 245.299 29.3637 239.056 20.1972 229.89C11.0308 220.723 4.78843 209.045 2.25943 196.33C-0.269583 183.616 1.02841 170.438 5.98924 158.461C10.9501 146.485 19.3509 136.248 30.1295 129.046C40.9081 121.844 53.5802 118 66.5435 118C83.9267 118 100.598 124.905 112.89 137.197C125.181 149.489 132.087 166.16 132.087 183.543V183.543Z" stroke="#231F20" stroke-width="2" stroke-linejoin="round" stroke-dasharray="10.26 10.26"/>
<path d="M438 313.442V98.1091C438 97.2692 437.32 96.5884 436.48 96.5884L93.4557 96.5884C92.6164 96.5884 91.936 97.2692 91.936 98.1091V313.442C91.936 314.282 92.6164 314.963 93.4557 314.963H436.48C437.32 314.963 438 314.282 438 313.442Z" fill="#C4C4C4"/>
<path d="M194.101 127.493H119.228V202.415H194.101V127.493Z" fill="white"/>
<path d="M405.141 127.607H206.699V202.53H405.141V127.607Z" fill="white"/>
<path d="M405.141 210.329H206.699V220.86H405.141V210.329Z" fill="white"/>
<path d="M405.027 228.169H206.585V238.699H405.027V228.169Z" fill="white"/>
<path d="M194.101 210.215H119.228V220.745H194.101V210.215Z" fill="white"/>
<path d="M194.101 228.169H119.228V238.699H194.101V228.169Z" fill="white"/>
<path d="M445.683 257.553H84.0786V283.895H445.683V257.553Z" fill="#FFCE2B"/>
<path d="M111.547 257.536L95.125 283.879H84.0786V283.617L100.321 257.536H111.547Z" fill="#231F20"/>
<path d="M136.614 257.536L120.191 283.879H108.998L125.42 257.536H136.614Z" fill="#231F20"/>
<path d="M161.713 257.536L145.291 283.879H134.065L150.487 257.536H161.713Z" fill="#231F20"/>
<path d="M186.797 257.536L170.374 283.879H159.165L175.587 257.536H186.797Z" fill="#231F20"/>
<path d="M211.896 257.536L195.473 283.879H184.264L200.686 257.536H211.896Z" fill="#231F20"/>
<path d="M236.995 257.536L220.573 283.879H209.363L225.769 257.536H236.995Z" fill="#231F20"/>
<path d="M262.094 257.536L245.672 283.879H234.446L250.868 257.536H262.094Z" fill="#231F20"/>
<path d="M287.161 257.536L270.739 283.879H259.545L275.968 257.536H287.161Z" fill="#231F20"/>
<path d="M312.261 257.536L295.838 283.879H284.645L301.067 257.536H312.261Z" fill="#231F20"/>
<path d="M337.36 257.536L320.937 283.879H309.711L326.134 257.536H337.36Z" fill="#231F20"/>
<path d="M362.443 257.536L346.021 283.879H334.811L351.233 257.536H362.443Z" fill="#231F20"/>
<path d="M387.542 257.536L371.12 283.879H359.91L376.333 257.536H387.542Z" fill="#231F20"/>
<path d="M412.642 257.536L396.219 283.879H385.01L401.416 257.536H412.642Z" fill="#231F20"/>
<path d="M437.741 257.536L421.319 283.879H410.093L426.515 257.536H437.741Z" fill="#231F20"/>
<path d="M445.683 267.053V283.879H435.192L445.683 267.053Z" fill="#231F20"/>
<path d="M245.035 109.081H208.023V118.205H245.035V109.081Z" fill="#C4C4C4"/>
<path d="M296.139 155.132L161.701 177.185L168.521 218.817L302.959 196.763L296.139 155.132Z" fill="#00C994"/>
<path d="M164.034 176.793C162.4 177.561 226.586 151.35 226.586 151.35L296.148 155.127" stroke="#231F20" stroke-width="2" stroke-miterlimit="10"/>
<path d="M405.125 15.2069H365.678V89.7862H405.125V15.2069Z" fill="#231F20"/>
<path d="M411.498 0H342.622V68.9216H411.498V0Z" fill="#002163"/>
<path d="M209.085 22.1727H206.585V118.205H209.085V22.1727Z" fill="#231F20"/>
<path d="M227.305 22.1727H224.805V118.205H227.305V22.1727Z" fill="#231F20"/>
<path d="M246.571 22.1727H244.071V118.205H246.571V22.1727Z" fill="#231F20"/>
<path d="M226.537 140.182C226.221 140.182 225.917 140.056 225.694 139.832C225.47 139.608 225.344 139.304 225.344 138.988V125.531C225.379 125.236 225.52 124.964 225.741 124.767C225.963 124.57 226.249 124.461 226.545 124.461C226.842 124.461 227.128 124.57 227.349 124.767C227.571 124.964 227.712 125.236 227.746 125.531V138.988C227.742 139.306 227.613 139.61 227.386 139.833C227.16 140.056 226.855 140.182 226.537 140.182Z" fill="#231F20"/>
<path d="M226.341 155.127C224.752 155.124 223.193 154.687 221.835 153.862C220.476 153.036 219.369 151.855 218.633 150.445C217.898 149.035 217.562 147.451 217.662 145.864C217.762 144.277 218.294 142.747 219.2 141.441C220.022 140.277 221.112 139.327 222.378 138.673C223.643 138.018 225.047 137.678 226.472 137.68C226.631 137.682 226.787 137.715 226.933 137.778C227.079 137.841 227.211 137.932 227.322 138.046C227.433 138.16 227.52 138.294 227.579 138.442C227.638 138.589 227.667 138.747 227.665 138.906C227.628 139.214 227.486 139.499 227.262 139.714C227.039 139.929 226.748 140.059 226.439 140.083C225.107 140.092 223.813 140.522 222.739 141.31C221.666 142.099 220.868 143.206 220.461 144.475C220.053 145.743 220.056 147.108 220.47 148.375C220.883 149.642 221.685 150.746 222.762 151.529C223.701 152.188 224.802 152.578 225.946 152.656C227.09 152.734 228.234 152.497 229.254 151.972C230.273 151.447 231.13 150.652 231.731 149.675C232.332 148.698 232.655 147.575 232.665 146.428C232.669 146.11 232.798 145.806 233.025 145.583C233.251 145.359 233.556 145.234 233.874 145.234C234.192 145.243 234.494 145.376 234.714 145.606C234.934 145.835 235.055 146.142 235.051 146.46C235.048 148.216 234.506 149.929 233.498 151.366C232.7 152.527 231.631 153.476 230.384 154.131C229.137 154.787 227.749 155.128 226.341 155.127Z" fill="#231F20"/>
<path d="M405.256 0H195.997V35.4991H405.256V0Z" fill="#002163"/>
<path d="M228.498 6.13182L215.099 29.3673L201.683 6.13182H228.498Z" fill="white"/>
<path d="M249.006 29.3673L235.59 6.13182L222.19 29.3673H249.006Z" fill="white"/>
<path d="M207.844 29.3837H195.997V8.84618L207.844 29.3837Z" fill="white"/>
<path d="M270.886 6.13182L257.47 29.3673L244.071 6.13182H270.886Z" fill="white"/>
<path d="M291.377 29.3673L277.978 6.13182L264.579 29.3673H291.377Z" fill="white"/>
<path d="M313.274 6.13182L299.858 29.3673L286.458 6.13182H313.274Z" fill="white"/>
<path d="M333.765 29.3673L320.366 6.13182L306.966 29.3673H333.765Z" fill="white"/>
<path d="M355.645 6.13182L342.246 29.3673L328.846 6.13182H355.645Z" fill="white"/>
<path d="M376.153 29.3673L362.754 6.13182L349.338 29.3673H376.153Z" fill="white"/>
<path d="M398.033 6.13182L384.634 29.3673L371.234 6.13182H398.033Z" fill="white"/>
<path d="M405.272 6.34439V29.3837H391.742L405.141 6.13182L405.272 6.34439Z" fill="white"/>
<path d="M195.996 0H189.476V35.4991H195.996V0Z" fill="#002163"/>
<path d="M411.498 0H404.978V35.4991H411.498V0Z" fill="#002163"/>
<path d="M372 127H367V374H372V127Z" fill="#231F20"/>
<path d="M406 127H401V374H406V127Z" fill="#231F20"/>
<path d="M402.399 153.688H369.456V156.517H402.399V153.688Z" fill="#231F20"/>
<path d="M402.399 182.009H369.456V184.837H402.399V182.009Z" fill="#231F20"/>
<path d="M402.399 210.329H369.456V213.158H402.399V210.329Z" fill="#231F20"/>
<path d="M402.399 238.65H369.456V241.479H402.399V238.65Z" fill="#231F20"/>
<path d="M402.399 266.971H369.456V269.8H402.399V266.971Z" fill="#231F20"/>
<path d="M402.399 295.308H369.456V298.137H402.399V295.308Z" fill="#231F20"/>
<path d="M77.6882 231.419V219.58C78.8026 218.888 81.6891 217.996 83.7174 216.913L91.8975 225.293C92.0765 225.481 92.2918 225.631 92.5303 225.733C92.7688 225.835 93.0256 225.888 93.285 225.888C93.5445 225.888 93.8012 225.835 94.0397 225.733C94.2782 225.631 94.4935 225.481 94.6725 225.293L106.664 213.253C106.853 213.065 107.003 212.842 107.106 212.596C107.208 212.35 107.261 212.086 107.261 211.819C107.261 211.553 107.208 211.289 107.106 211.043C107.003 210.797 106.853 210.573 106.664 210.385L98.2834 202.574C99.3979 200.544 100.245 200.12 100.925 196.772H112.682C113.797 196.772 115.58 194.63 115.58 193.503V176.609C115.58 175.493 113.808 173.417 112.682 173.417H100.847C100.167 172.301 99.2752 169.612 98.1942 167.581L106.564 159.491C106.75 159.316 106.899 159.104 107.001 158.869C107.102 158.634 107.155 158.381 107.155 158.124C107.155 157.868 107.102 157.615 107.001 157.38C106.899 157.145 106.75 156.933 106.564 156.758L94.5722 144.84C94.3855 144.65 94.1626 144.498 93.9167 144.395C93.6708 144.291 93.4068 144.238 93.1401 144.238C92.8734 144.238 92.6094 144.291 92.3635 144.395C92.1176 144.498 91.8948 144.65 91.708 144.84L83.7174 153.231C81.6891 152.116 78.8026 151.279 77.6882 150.587V138.77C77.6882 137.654 76.0276 135.478 74.902 135.478H57.9399C56.8255 135.478 55.399 137.654 55.399 138.77V150.62C53.2691 151.304 51.2122 152.197 49.2583 153.287L41.0113 144.907C40.8302 144.717 40.6123 144.565 40.3709 144.462C40.1295 144.358 39.8697 144.305 39.607 144.305C39.3444 144.305 39.0846 144.358 38.8432 144.462C38.6018 144.565 38.384 144.717 38.2029 144.907L26.2447 156.903C25.8649 157.285 25.6518 157.803 25.6518 158.342C25.6518 158.881 25.8649 159.399 26.2447 159.782L34.6366 167.592C33.5221 169.623 32.6528 172.313 31.973 173.428H20.1597C19.0453 173.428 17.5073 175.504 17.5073 176.62V193.592C17.5073 194.708 19.0341 196.861 20.1597 196.861H31.9953C32.6751 200.209 33.5779 200.633 34.6589 202.664L26.2893 210.742C26.1018 210.915 25.9522 211.124 25.8498 211.358C25.7474 211.591 25.6946 211.843 25.6946 212.098C25.6946 212.353 25.7474 212.605 25.8498 212.839C25.9522 213.072 26.1018 213.282 26.2893 213.454L38.2809 225.382C38.6611 225.762 39.176 225.975 39.7129 225.975C40.2498 225.975 40.7648 225.762 41.145 225.382L49.2694 216.98C51.224 218.063 53.2809 218.949 55.4101 219.625V231.464C55.4101 232.58 56.8366 232.58 57.9511 232.58H74.902C76.0276 232.557 77.6882 232.546 77.6882 231.419Z" fill="#C4C4C4" stroke="#231F20" stroke-width="2" stroke-linejoin="round"/>
<path d="M66.5434 198.594C63.5667 198.594 60.6568 197.711 58.1817 196.058C55.7066 194.404 53.7775 192.053 52.6384 189.303C51.4992 186.553 51.2011 183.527 51.7819 180.607C52.3626 177.688 53.7961 175.006 55.9009 172.901C58.0058 170.796 60.6876 169.363 63.6071 168.782C66.5267 168.201 69.5529 168.499 72.3031 169.638C75.0532 170.778 77.4038 172.707 79.0576 175.182C80.7114 177.657 81.5941 180.567 81.5941 183.543C81.5941 187.535 80.0084 191.363 77.1859 194.186C74.3633 197.009 70.5351 198.594 66.5434 198.594Z" fill="#F1F2F2"/>
<path d="M226.357 135.652C232.864 135.652 238.139 130.374 238.139 123.863C238.139 117.352 232.864 112.073 226.357 112.073C219.851 112.073 214.576 117.352 214.576 123.863C214.576 130.374 219.851 135.652 226.357 135.652Z" fill="#002163"/>
<path d="M246.571 117.224H206.585V127.493H246.571V117.224Z" fill="#002163"/>
</svg>
